<svg width="27" height="14" viewBox="0 0 27 14" fill="none" xmlns="http://www.w3.org/2000/svg">
<path d="M13.4788 13.4788C13.029 13.4797 12.5931 13.323 12.2467 13.036L0.695484 3.41002C0.302325 3.08324 0.0550824 2.61366 0.00814649 2.10458C-0.0387894 1.59551 0.118426 1.08864 0.445207 0.695483C0.771988 0.302324 1.24157 0.0550824 1.75064 0.00814653C2.25971 -0.0387894 2.76658 0.118425 3.15974 0.445206L13.4788 9.07011L23.7979 0.75324C23.9948 0.593321 24.2214 0.473898 24.4646 0.401834C24.7079 0.329771 24.9629 0.306487 25.2152 0.333323C25.4675 0.360159 25.7119 0.436583 25.9346 0.558206C26.1572 0.679828 26.3536 0.84425 26.5124 1.04202C26.6888 1.23997 26.8223 1.4722 26.9047 1.72416C26.9871 1.97612 27.0165 2.24238 26.9912 2.50625C26.9659 2.77012 26.8864 3.02593 26.7576 3.25764C26.6289 3.48935 26.4536 3.69197 26.2429 3.85281L14.6917 13.1515C14.3354 13.3932 13.9083 13.5084 13.4788 13.4788V13.4788Z" fill="#FCF7F8"/>
</svg>
