<svg width="29" height="57" viewBox="0 0 29 57" fill="none" xmlns="http://www.w3.org/2000/svg">
<path d="M23.7437 56.2085C23.1524 56.2105 22.5681 56.08 22.0338 55.8265C21.4995 55.5731 21.0288 55.2031 20.6562 54.7439L1.5375 30.9939C0.955299 30.2856 0.637024 29.3972 0.637024 28.4804C0.637024 27.5635 0.955299 26.6751 1.5375 25.9668L21.3292 2.21682C22.001 1.40846 22.9665 0.900118 24.0132 0.803615C25.0599 0.707112 26.1021 1.03036 26.9104 1.70224C27.7188 2.37412 28.2271 3.3396 28.3236 4.38629C28.4201 5.43298 28.0969 6.47513 27.425 7.28349L9.73125 28.5002L26.8312 49.7168C27.3153 50.2978 27.6228 51.0054 27.7173 51.7557C27.8118 52.506 27.6894 53.2676 27.3646 53.9506C27.0398 54.6335 26.5262 55.2091 25.8845 55.6092C25.2428 56.0094 24.4999 56.2173 23.7437 56.2085Z" fill="black"/>
</svg>
