<svg width="29" height="57" viewBox="0 0 29 57" fill="none" xmlns="http://www.w3.org/2000/svg">
<path d="M4.58334 56.2082C3.65847 56.21 2.76216 55.8879 2.05001 55.2978C1.64919 54.9655 1.31787 54.5574 1.07502 54.0968C0.83217 53.6363 0.68256 53.1324 0.63476 52.6139C0.586959 52.0955 0.641909 51.5727 0.79646 51.0755C0.951011 50.5783 1.20212 50.1165 1.53542 49.7165L19.2688 28.4998L2.16876 7.2436C1.83996 6.83871 1.59442 6.37283 1.44625 5.87273C1.29808 5.37264 1.25021 4.8482 1.30539 4.32954C1.36056 3.81089 1.51769 3.30825 1.76776 2.85052C2.01782 2.39279 2.35588 1.989 2.76251 1.66235C3.17206 1.30199 3.65168 1.03018 4.17126 0.863977C4.69084 0.697771 5.23916 0.640756 5.78182 0.696509C6.32448 0.752262 6.84976 0.919579 7.32469 1.18796C7.79962 1.45634 8.21395 1.82 8.54167 2.2561L27.6604 26.0061C28.2426 26.7144 28.5609 27.6028 28.5609 28.5196C28.5609 29.4365 28.2426 30.3249 27.6604 31.0332L7.86876 54.7832C7.47167 55.2622 6.96724 55.6409 6.39641 55.8885C5.82558 56.1361 5.20443 56.2456 4.58334 56.2082Z" fill="black"/>
</svg>
