<svg width="27" height="14" viewBox="0 0 27 14" fill="none" xmlns="http://www.w3.org/2000/svg">
<path d="M25.0348 13.4908C24.585 13.4917 24.149 13.335 23.8027 13.048L13.4836 4.42313L3.14525 12.74C2.94833 12.8999 2.72174 13.0193 2.47851 13.0914C2.23528 13.1635 1.98021 13.1868 1.72795 13.1599C1.4757 13.1331 1.23123 13.0567 1.00861 12.935C0.785984 12.8134 0.589592 12.649 0.430719 12.4512C0.2708 12.2543 0.151377 12.0277 0.0793135 11.7845C0.00724989 11.5412 -0.0160332 11.2862 0.0108026 11.0339C0.0376384 10.7817 0.114064 10.5372 0.235686 10.3146C0.357308 10.0919 0.52173 9.89556 0.719499 9.73669L12.2707 0.43796C12.6152 0.154798 13.0473 0 13.4932 0C13.9391 0 14.3712 0.154798 14.7157 0.43796L26.2669 10.064C26.4619 10.2256 26.623 10.4241 26.7411 10.6481C26.8592 10.8721 26.932 11.1172 26.9553 11.3693C26.9785 11.6215 26.9518 11.8757 26.8766 12.1175C26.8014 12.3594 26.6793 12.584 26.5172 12.7785C26.3381 12.9994 26.1122 13.1778 25.8559 13.3009C25.5996 13.4241 25.3192 13.4889 25.0348 13.4908Z" fill="#FCF7F8"/>
</svg>
