<svg width="60" height="60" viewBox="0 0 60 60" fill="none" xmlns="http://www.w3.org/2000/svg">
<path fill-rule="evenodd" clip-rule="evenodd" d="M55 52.2406C55 53.7646 53.7643 55.0002 52.2404 55.0002H7.75957C6.23516 55.0002 5 53.7646 5 52.2406V7.75957C5 6.23535 6.23516 5 7.75957 5H52.2404C53.7643 5 55 6.23535 55 7.75957V52.2406ZM39.499 35.6375V55.0002H31.7066V35.6375H25.1906V28.0916H31.7066V22.5266C31.7066 16.0684 35.6508 12.5518 41.4121 12.5518C44.1715 12.5518 46.5433 12.7572 47.2348 12.8492V19.5982L43.2389 19.6C40.1058 19.6 39.499 21.0889 39.499 23.2736V28.0916H46.9715L45.9984 35.6375H39.499Z" fill="#FCF7F8"/>
</svg>
