<svg width="60" height="60" viewBox="0 0 60 60" fill="none" xmlns="http://www.w3.org/2000/svg">
<path fill-rule="evenodd" clip-rule="evenodd" d="M54.9998 52.2404C54.9998 53.7645 53.7641 55 52.2402 55L39.4989 55V35.6374H45.9983L46.9713 28.0915H39.4989V23.2736C39.4989 21.0888 40.1057 19.6 43.2387 19.6L47.2346 19.5982V12.8492C46.5432 12.7572 44.1713 12.5518 41.412 12.5518C35.6507 12.5518 31.7065 16.0683 31.7065 22.5265V28.0915H25.1906V35.6374H31.7065V55L7.75956 55C6.23515 55 5 53.7645 5 52.2404V7.75956C5 6.23535 6.23515 5 7.75956 5H52.2402C53.7641 5 54.9998 6.23535 54.9998 7.75956V52.2404Z" fill="#395185"/>
</svg>
