<svg width="50" height="50" viewBox="0 0 50 50" fill="none" xmlns="http://www.w3.org/2000/svg">
<mask id="path-1-inside-1" fill="white">
<path fill-rule="evenodd" clip-rule="evenodd" d="M50 47.2406C50 48.7646 48.7643 50.0002 47.2404 50.0002H2.75957C1.23516 50.0002 0 48.7646 0 47.2406V2.75957C0 1.23535 1.23516 0 2.75957 0H47.2404C48.7643 0 50 1.23535 50 2.75957V47.2406ZM34.499 30.6375V50.0002H26.7066V30.6375H20.1906V23.0916H26.7066V17.5266C26.7066 11.0684 30.6508 7.55175 36.4121 7.55175C39.1715 7.55175 41.5433 7.75722 42.2348 7.84921V14.5982L38.2389 14.6C35.1058 14.6 34.499 16.0889 34.499 18.2736V23.0916H41.9715L40.9984 30.6375H34.499Z"/>
</mask>
<path fill-rule="evenodd" clip-rule="evenodd" d="M50 47.2406C50 48.7646 48.7643 50.0002 47.2404 50.0002H2.75957C1.23516 50.0002 0 48.7646 0 47.2406V2.75957C0 1.23535 1.23516 0 2.75957 0H47.2404C48.7643 0 50 1.23535 50 2.75957V47.2406ZM34.499 30.6375V50.0002H26.7066V30.6375H20.1906V23.0916H26.7066V17.5266C26.7066 11.0684 30.6508 7.55175 36.4121 7.55175C39.1715 7.55175 41.5433 7.75722 42.2348 7.84921V14.5982L38.2389 14.6C35.1058 14.6 34.499 16.0889 34.499 18.2736V23.0916H41.9715L40.9984 30.6375H34.499Z" fill="#FCF7F8"/>
<path d="M34.499 50.0002V51.0002H35.499V50.0002H34.499ZM34.499 30.6375V29.6375H33.499V30.6375H34.499ZM26.7066 50.0002H25.7066V51.0002H26.7066V50.0002ZM26.7066 30.6375H27.7066V29.6375H26.7066V30.6375ZM20.1906 30.6375H19.1906V31.6375H20.1906V30.6375ZM20.1906 23.0916V22.0916H19.1906V23.0916H20.1906ZM26.7066 23.0916V24.0916H27.7066V23.0916H26.7066ZM42.2348 7.84921H43.2348V6.97345L42.3666 6.85795L42.2348 7.84921ZM42.2348 14.5982L42.2352 15.5982L43.2348 15.5978V14.5982H42.2348ZM38.2389 14.6V15.6H38.2393L38.2389 14.6ZM34.499 23.0916H33.499V24.0916H34.499V23.0916ZM41.9715 23.0916L42.9633 23.2195L43.1087 22.0916H41.9715V23.0916ZM40.9984 30.6375V31.6375H41.8778L41.9902 30.7654L40.9984 30.6375ZM47.2404 51.0002C49.3165 51.0002 51 49.317 51 47.2406H49C49 48.2123 48.212 49.0002 47.2404 49.0002V51.0002ZM2.75957 51.0002H47.2404V49.0002H2.75957V51.0002ZM-1 47.2406C-1 49.3168 0.682778 51.0002 2.75957 51.0002V49.0002C1.78753 49.0002 1 48.2125 1 47.2406H-1ZM-1 2.75957V47.2406H1V2.75957H-1ZM2.75957 -1C0.682825 -1 -1 0.683113 -1 2.75957H1C1 1.78759 1.78749 1 2.75957 1V-1ZM47.2404 -1H2.75957V1H47.2404V-1ZM51 2.75957C51 0.682974 49.3164 -1 47.2404 -1V1C48.2121 1 49 1.78773 49 2.75957H51ZM51 47.2406V2.75957H49V47.2406H51ZM35.499 50.0002V30.6375H33.499V50.0002H35.499ZM26.7066 51.0002H34.499V49.0002H26.7066V51.0002ZM25.7066 30.6375V50.0002H27.7066V30.6375H25.7066ZM20.1906 31.6375H26.7066V29.6375H20.1906V31.6375ZM19.1906 23.0916V30.6375H21.1906V23.0916H19.1906ZM26.7066 22.0916H20.1906V24.0916H26.7066V22.0916ZM25.7066 17.5266V23.0916H27.7066V17.5266H25.7066ZM36.4121 6.55175C33.3285 6.55175 30.6282 7.49623 28.6959 9.40611C26.7605 11.319 25.7066 14.0907 25.7066 17.5266H27.7066C27.7066 14.5042 28.6248 12.2885 30.1018 10.8285C31.582 9.36558 33.7344 8.55175 36.4121 8.55175V6.55175ZM42.3666 6.85795C41.6253 6.75932 39.2089 6.55175 36.4121 6.55175V8.55175C39.1341 8.55175 41.4614 8.75513 42.1029 8.84048L42.3666 6.85795ZM43.2348 14.5982V7.84921H41.2348V14.5982H43.2348ZM38.2393 15.6L42.2352 15.5982L42.2343 13.5982L38.2384 13.6L38.2393 15.6ZM35.499 18.2736C35.499 17.2241 35.6573 16.62 35.959 16.2616C36.2283 15.9418 36.8056 15.6 38.2389 15.6V13.6C36.5391 13.6 35.2465 14.0027 34.4291 14.9734C33.6442 15.9057 33.499 17.1384 33.499 18.2736H35.499ZM35.499 23.0916V18.2736H33.499V23.0916H35.499ZM41.9715 22.0916H34.499V24.0916H41.9715V22.0916ZM41.9902 30.7654L42.9633 23.2195L40.9797 22.9637L40.0066 30.5096L41.9902 30.7654ZM34.499 31.6375H40.9984V29.6375H34.499V31.6375Z" fill="#151515" mask="url(#path-1-inside-1)"/>
</svg>
