<svg width="84" height="84" viewBox="0 0 84 84" fill="none" xmlns="http://www.w3.org/2000/svg">
<path d="M13.25 31.5V32.25H14H70H70.75V31.5C70.75 28.5163 69.5647 25.6548 67.455 23.545C65.3452 21.4353 62.4837 20.25 59.5 20.25H24.5C21.5163 20.25 18.6548 21.4353 16.545 23.545C14.4353 25.6548 13.25 28.5163 13.25 31.5Z" fill="#FCA500" stroke="#151515" stroke-width="1.5"/>
<path d="M14 51.75H13.25V52.5C13.25 55.4837 14.4353 58.3452 16.545 60.455C18.6548 62.5647 21.5163 63.75 24.5 63.75H59.5C62.4837 63.75 65.3452 62.5647 67.455 60.455C69.5647 58.3452 70.75 55.4837 70.75 52.5V51.75H70H14Z" fill="#FCA500" stroke="#151515" stroke-width="1.5"/>
<path d="M10.5 37.75C9.37283 37.75 8.29183 38.1978 7.4948 38.9948C6.69777 39.7918 6.25 40.8728 6.25 42C6.25 43.1272 6.69777 44.2082 7.4948 45.0052C8.29183 45.8022 9.37283 46.25 10.5 46.25H73.5C74.6272 46.25 75.7082 45.8022 76.5052 45.0052C77.3022 44.2082 77.75 43.1272 77.75 42C77.75 40.8728 77.3022 39.7918 76.5052 38.9948C75.7082 38.1978 74.6272 37.75 73.5 37.75H10.5Z" fill="#CD533B" stroke="#151515" stroke-width="1.5"/>
</svg>
