<svg width="50" height="50" viewBox="0 0 50 50" fill="none" xmlns="http://www.w3.org/2000/svg">
<path d="M3 3H47V47H3V3Z" fill="#F7DF1E"/>
<path d="M14.5693 39.7696L17.9363 37.7318C18.586 38.8835 19.1769 39.8581 20.5943 39.8581C21.953 39.8581 22.8098 39.3266 22.8098 37.2593V23.2003H26.9446V37.3178C26.9446 41.6004 24.4342 43.5498 20.7715 43.5498C17.4638 43.5498 15.5438 41.8367 14.5691 39.7692" fill="black"/>
<path d="M29.1905 39.3265L32.5572 37.3772C33.4436 38.8246 34.5955 39.8878 36.6332 39.8878C38.3467 39.8878 39.4391 39.0312 39.4391 37.8497C39.4391 36.4321 38.3168 35.9299 36.4265 35.1032L35.393 34.6597C32.4098 33.3901 30.431 31.7951 30.431 28.428C30.431 25.3267 32.7937 22.9638 36.4858 22.9638C39.1144 22.9638 41.0047 23.8795 42.3632 26.2719L39.1436 28.3395C38.4347 27.0695 37.6671 26.5675 36.4856 26.5675C35.2746 26.5675 34.5066 27.3354 34.5066 28.3395C34.5066 29.58 35.2746 30.0823 37.0466 30.8503L38.0803 31.2932C41.5951 32.7997 43.5739 34.3354 43.5739 37.7908C43.5739 41.5125 40.65 43.5503 36.7218 43.5503C32.8822 43.5503 30.4012 41.7191 29.1904 39.3266" fill="black"/>
</svg>
