<svg width="60" height="60" viewBox="0 0 60 60" fill="none" xmlns="http://www.w3.org/2000/svg">
<path d="M47.6023 47.6031H40.1939V36.0009C40.1939 33.2343 40.1445 29.6728 36.3408 29.6728C32.4822 29.6728 31.8918 32.6872 31.8918 35.7995V47.6023H24.4836V23.7437H31.5955V27.0042H31.6951C32.4069 25.7872 33.4353 24.7861 34.6711 24.1074C35.9068 23.4287 37.3034 23.0978 38.7123 23.1501C46.2211 23.1501 47.6055 28.0892 47.6055 34.5146L47.6023 47.6031ZM16.1242 20.4825C13.7498 20.4829 11.8246 18.5583 11.8242 16.1839C11.8238 13.8095 13.7482 11.8843 16.1227 11.8839C18.4971 11.8833 20.4223 13.8079 20.4227 16.1824C20.4229 17.3226 19.9701 18.4162 19.164 19.2227C18.3579 20.0291 17.2645 20.4823 16.1242 20.4825ZM19.8285 47.6032H12.4123V23.7437H19.8283L19.8285 47.6032ZM51.2957 5.00364H8.68965C6.67598 4.98098 5.02461 6.59407 5 8.60774V51.3915C5.02383 53.4062 6.675 55.0208 8.68945 54.9997H51.2957C53.3145 55.0247 54.9721 53.4101 55 51.3915V8.60442C54.9713 6.58684 53.3135 4.97395 51.2957 5.00032" fill="#FCF7F8"/>
</svg>
