<svg width="50" height="50" viewBox="0 0 50 50" fill="none" xmlns="http://www.w3.org/2000/svg">
<mask id="path-1-inside-1" fill="white">
<path d="M42.6023 42.6031H35.1939V31.0009C35.1939 28.2343 35.1445 24.6728 31.3408 24.6728C27.4822 24.6728 26.8918 27.6872 26.8918 30.7995V42.6023H19.4836V18.7437H26.5955V22.0042H26.6951C27.4069 20.7872 28.4353 19.7861 29.6711 19.1074C30.9068 18.4287 32.3034 18.0978 33.7123 18.1501C41.2211 18.1501 42.6055 23.0892 42.6055 29.5146L42.6023 42.6031ZM11.1242 15.4825C8.74981 15.4829 6.82461 13.5583 6.82422 11.1839C6.82383 8.8095 8.74824 6.8843 11.1227 6.88391C13.4971 6.88333 15.4223 8.80794 15.4227 11.1824C15.4229 12.3226 14.9701 13.4162 14.164 14.2227C13.3579 15.0291 12.2645 15.4823 11.1242 15.4825ZM14.8285 42.6032H7.4123V18.7437H14.8283L14.8285 42.6032ZM46.2957 0.00363904H3.68965C1.67598 -0.0190172 0.0246094 1.59407 0 3.60774V46.3915C0.0238281 48.4062 1.675 50.0208 3.68945 49.9997H46.2957C48.3145 50.0247 49.9721 48.4101 50 46.3915V3.60442C49.9713 1.58684 48.3135 -0.0260485 46.2957 0.000318729"/>
</mask>
<path d="M42.6023 42.6031H35.1939V31.0009C35.1939 28.2343 35.1445 24.6728 31.3408 24.6728C27.4822 24.6728 26.8918 27.6872 26.8918 30.7995V42.6023H19.4836V18.7437H26.5955V22.0042H26.6951C27.4069 20.7872 28.4353 19.7861 29.6711 19.1074C30.9068 18.4287 32.3034 18.0978 33.7123 18.1501C41.2211 18.1501 42.6055 23.0892 42.6055 29.5146L42.6023 42.6031ZM11.1242 15.4825C8.74981 15.4829 6.82461 13.5583 6.82422 11.1839C6.82383 8.8095 8.74824 6.8843 11.1227 6.88391C13.4971 6.88333 15.4223 8.80794 15.4227 11.1824C15.4229 12.3226 14.9701 13.4162 14.164 14.2227C13.3579 15.0291 12.2645 15.4823 11.1242 15.4825ZM14.8285 42.6032H7.4123V18.7437H14.8283L14.8285 42.6032ZM46.2957 0.00363904H3.68965C1.67598 -0.0190172 0.0246094 1.59407 0 3.60774V46.3915C0.0238281 48.4062 1.675 50.0208 3.68945 49.9997H46.2957C48.3145 50.0247 49.9721 48.4101 50 46.3915V3.60442C49.9713 1.58684 48.3135 -0.0260485 46.2957 0.000318729" fill="#FCF7F8"/>
<path d="M42.6023 42.6031V43.6031H43.6021L43.6023 42.6033L42.6023 42.6031ZM35.1939 42.6031H34.1939V43.6031H35.1939V42.6031ZM26.8918 42.6023V43.6023H27.8918V42.6023H26.8918ZM19.4836 42.6023H18.4836V43.6023H19.4836V42.6023ZM19.4836 18.7437V17.7437H18.4836V18.7437H19.4836ZM26.5955 18.7437H27.5955V17.7437H26.5955V18.7437ZM26.5955 22.0042H25.5955V23.0042H26.5955V22.0042ZM26.6951 22.0042V23.0042H27.2687L27.5583 22.5091L26.6951 22.0042ZM33.7123 18.1501L33.6752 19.1494L33.6938 19.1501H33.7123V18.1501ZM42.6055 29.5146L43.6055 29.5148V29.5146H42.6055ZM11.1242 15.4825L11.1244 16.4825H11.1244L11.1242 15.4825ZM11.1227 6.88391L11.1228 7.88391H11.1229L11.1227 6.88391ZM15.4227 11.1824L14.4227 11.1825V11.1825L15.4227 11.1824ZM14.8285 42.6032V43.6032H15.8285L15.8285 42.6032L14.8285 42.6032ZM7.4123 42.6032H6.4123V43.6032H7.4123V42.6032ZM7.4123 18.7437V17.7437H6.4123V18.7437H7.4123ZM14.8283 18.7437L15.8283 18.7437L15.8283 17.7437H14.8283V18.7437ZM3.68965 0.00363904L3.6784 1.00364H3.68965V0.00363904ZM0 3.60774L-1 3.59552V3.60774H0ZM0 46.3915H-1.00007L-0.99993 46.4034L0 46.3915ZM3.68945 49.9997V48.9997L3.67898 48.9998L3.68945 49.9997ZM46.2957 49.9997L46.3081 48.9997H46.2957V49.9997ZM50 46.3915L51 46.4054V46.3915H50ZM50 3.60442H51V3.59731L50.9999 3.59019L50 3.60442ZM42.6023 41.6031H35.1939V43.6031H42.6023V41.6031ZM36.1939 42.6031V31.0009H34.1939V42.6031H36.1939ZM36.1939 31.0009C36.1939 29.6622 36.1945 27.878 35.624 26.4323C35.3273 25.6806 34.8593 24.9693 34.1205 24.4529C33.3794 23.9349 32.4516 23.6728 31.3408 23.6728V25.6728C32.1319 25.6728 32.6366 25.8559 32.9747 26.0921C33.3149 26.3299 33.5724 26.682 33.7636 27.1664C34.1687 28.1932 34.1939 29.5731 34.1939 31.0009H36.1939ZM31.3408 23.6728C30.2461 23.6728 29.3106 23.8871 28.5333 24.3177C27.7502 24.7514 27.1875 25.3717 26.7936 26.0863C26.0317 27.4683 25.8918 29.225 25.8918 30.7995H27.8918C27.8918 29.2618 28.0471 27.9551 28.5451 27.0518C28.7811 26.6237 29.0895 26.2959 29.5024 26.0672C29.921 25.8353 30.5063 25.6728 31.3408 25.6728V23.6728ZM25.8918 30.7995V42.6023H27.8918V30.7995H25.8918ZM26.8918 41.6023H19.4836V43.6023H26.8918V41.6023ZM20.4836 42.6023V18.7437H18.4836V42.6023H20.4836ZM19.4836 19.7437H26.5955V17.7437H19.4836V19.7437ZM25.5955 18.7437V22.0042H27.5955V18.7437H25.5955ZM26.5955 23.0042H26.6951V21.0042H26.5955V23.0042ZM27.5583 22.5091C28.1788 21.4482 29.0753 20.5755 30.1525 19.9839L29.1897 18.2309C27.7954 18.9967 26.635 20.1263 25.8319 21.4994L27.5583 22.5091ZM30.1525 19.9839C31.2296 19.3923 32.4471 19.1039 33.6752 19.1494L33.7494 17.1508C32.1598 17.0918 30.5839 17.4651 29.1897 18.2309L30.1525 19.9839ZM33.7123 19.1501C37.2205 19.1501 39.0736 20.2824 40.1287 21.9561C41.2506 23.7357 41.6055 26.3237 41.6055 29.5146H43.6055C43.6055 26.2801 43.2682 23.1858 41.8206 20.8896C40.3063 18.4874 37.7129 17.1501 33.7123 17.1501V19.1501ZM41.6055 29.5143L41.6023 42.6028L43.6023 42.6033L43.6055 29.5148L41.6055 29.5143ZM11.1241 14.4825C9.30194 14.4828 7.82452 13.0059 7.82422 11.1837L5.82422 11.1841C5.8247 14.1108 8.19767 16.483 11.1244 16.4825L11.1241 14.4825ZM7.82422 11.1837C7.82392 9.36157 9.30074 7.88421 11.1228 7.88391L11.1225 5.88391C8.19575 5.88439 5.82374 8.25742 5.82422 11.1841L7.82422 11.1837ZM11.1229 7.88391C12.9449 7.88346 14.4224 9.36036 14.4227 11.1825L16.4227 11.1822C16.4222 8.25552 14.0492 5.88319 11.1224 5.88391L11.1229 7.88391ZM14.4227 11.1825C14.4228 12.0576 14.0754 12.8968 13.4568 13.5157L14.8713 14.9296C15.8649 13.9356 16.4229 12.5876 16.4227 11.1822L14.4227 11.1825ZM13.4568 13.5157C12.8381 14.1346 11.999 14.4823 11.124 14.4825L11.1244 16.4825C12.5299 16.4822 13.8777 15.9236 14.8713 14.9296L13.4568 13.5157ZM14.8285 41.6032H7.4123V43.6032H14.8285V41.6032ZM8.4123 42.6032V18.7437H6.4123V42.6032H8.4123ZM7.4123 19.7437H14.8283V17.7437H7.4123V19.7437ZM13.8283 18.7437L13.8285 42.6033L15.8285 42.6032L15.8283 18.7437L13.8283 18.7437ZM46.2957 -0.996361H3.68965V1.00364H46.2957V-0.996361ZM3.7009 -0.996298C1.13534 -1.02516 -0.968572 1.03 -0.999925 3.59552L0.999925 3.61996C1.01779 2.15814 2.21661 0.987129 3.6784 1.00358L3.7009 -0.996298ZM-1 3.60774V46.3915H1V3.60774H-1ZM-0.99993 46.4034C-0.969577 48.9697 1.13374 51.0266 3.69992 50.9997L3.67898 48.9998C2.21625 49.0151 1.01723 47.8426 0.99993 46.3797L-0.99993 46.4034ZM3.68945 50.9997H46.2957V48.9997H3.68945V50.9997ZM46.2833 50.9997C48.8537 51.0315 50.9643 48.9756 50.9999 46.4054L49.0001 46.3777C48.9798 47.8445 47.7752 49.018 46.3081 48.9998L46.2833 50.9997ZM51 46.3915V3.60442H49V46.3915H51ZM50.9999 3.59019C50.9633 1.02071 48.8521 -1.03317 46.2826 -0.999596L46.3088 1.00023C47.7749 0.981075 48.9792 2.15297 49.0001 3.61865L50.9999 3.59019Z" fill="#151515" mask="url(#path-1-inside-1)"/>
</svg>
