<svg width="200" height="200" viewBox="0 0 200 200" fill="none" xmlns="http://www.w3.org/2000/svg">
<g id="Succes-icon">
<g id="bi:check">
<g id="Group">
<path id="Vector" d="M92.4995 115.268L130.587 66.7398C130.588 66.7389 130.589 66.7379 130.59 66.7369C130.646 66.6679 130.706 66.6021 130.769 66.5397L130.93 66.3815C132.359 65.1036 134.215 64.4007 136.138 64.4153C138.142 64.4304 140.061 65.2233 141.491 66.6267C142.921 68.0301 143.75 69.9341 143.803 71.9371C143.856 73.94 143.129 75.8852 141.775 77.3622L141.764 77.3746L141.753 77.3878L98.0012 132.105C97.2968 132.86 96.4482 133.467 95.5055 133.888C94.5572 134.312 93.5331 134.541 92.4945 134.56C91.4559 134.579 90.4241 134.389 89.4607 134C88.4974 133.611 87.6223 133.032 86.8878 132.298L86.5342 132.651L86.8878 132.298L57.8656 103.276L57.8593 103.269L57.8529 103.263C57.0938 102.556 56.4849 101.703 56.0627 100.755C55.6404 99.8076 55.4133 98.7845 55.395 97.7471C55.3767 96.7097 55.5675 95.6792 55.9561 94.7172C56.3447 93.7551 56.9231 92.8812 57.6568 92.1475C58.3904 91.4138 59.2644 90.8355 60.2264 90.4469C61.1885 90.0583 62.2189 89.8674 63.2563 89.8857C64.2938 89.904 65.3168 90.1311 66.2646 90.5534C67.2123 90.9757 68.0653 91.5845 68.7727 92.3436L68.7787 92.3501L68.785 92.3564L91.7527 115.313L92.1514 115.712L92.4995 115.268Z" fill="#FCF7F8" stroke="#009AFE"/>
</g>
</g>
</g>
</svg>
