<svg width="200" height="200" viewBox="0 0 200 200" fill="none" xmlns="http://www.w3.org/2000/svg">
<g id="Loading-icon">
<path id="Fill" d="M166.653 98.6394C166.668 99.3907 167.276 100 168.027 100H181.973C182.724 100 183.334 99.391 183.322 98.6396C183.151 88.1594 181.004 77.8013 176.99 68.11C172.802 57.9996 166.664 48.813 158.926 41.0748C151.187 33.3365 142.001 27.1983 131.89 23.0104C122.199 18.9961 111.841 16.8492 101.361 16.6781C100.609 16.6658 100 17.2762 100 18.0276V31.973C100 32.7245 100.61 33.3322 101.361 33.3475C118.549 33.6981 134.959 40.6786 147.14 52.8599C159.322 65.0412 166.302 81.4511 166.653 98.6394Z" fill="#009AFE"/>
</g>
</svg>
