<svg width="200" height="200" viewBox="0 0 200 200" fill="none" xmlns="http://www.w3.org/2000/svg">
<g id="Succes-icon">
<path id="Circle-succes" d="M56.9247 33.8757C70.4643 24.8288 86.3826 20 102.667 20C113.479 20 124.185 22.1296 134.174 26.2672C144.163 30.4049 153.24 36.4695 160.885 44.1149C168.53 51.7602 174.595 60.8366 178.733 70.8257C182.87 80.8149 185 91.5212 185 102.333C185 118.617 180.171 134.536 171.124 148.075C162.077 161.615 149.219 172.168 134.174 178.399C119.13 184.631 102.575 186.262 86.6042 183.085C70.6331 179.908 55.9627 172.066 44.4482 160.552C32.9336 149.037 25.0922 134.367 21.9153 118.396C18.7385 102.425 20.3689 85.8702 26.6005 70.8257C32.8322 55.7813 43.385 42.9226 56.9247 33.8757Z" fill="#009AFE" stroke="#009AFE" stroke-width="2"/>
</g>
</svg>
