<svg width="200" height="200" viewBox="0 0 200 200" fill="none" xmlns="http://www.w3.org/2000/svg">
<g id="Succes-icon">
<g id="ph:warning-bold">
<path id="Vector" d="M137.428 126.23L137.439 126.249C137.534 126.42 137.584 126.612 137.584 126.808C137.584 127.011 137.531 127.211 137.429 127.387C137.328 127.562 137.182 127.709 137.006 127.81C136.83 127.912 136.631 127.965 136.428 127.965H63.5721C63.369 127.965 63.1696 127.912 62.9937 127.81C62.8179 127.709 62.672 127.562 62.5706 127.387C62.4692 127.211 62.4159 127.011 62.4161 126.808C62.4162 126.605 62.4699 126.406 62.5716 126.23L62.1869 126.007L62.5717 126.23L98.9992 63.2952L98.5665 63.0447L98.9992 63.2952C99.1008 63.1197 99.2467 62.974 99.4224 62.8727C99.598 62.7714 99.7972 62.7181 100 62.7181C100.203 62.7181 100.402 62.7714 100.578 62.8727C100.753 62.974 100.899 63.1197 101.001 63.2952L101.433 63.0447L101.001 63.2952L137.428 126.23ZM94.5312 87.0624V100.312C94.5312 101.763 95.1074 103.154 96.133 104.179C97.1586 105.205 98.5496 105.781 100 105.781C101.45 105.781 102.841 105.205 103.867 104.179C104.893 103.154 105.469 101.763 105.469 100.312V87.0624C105.469 85.612 104.893 84.221 103.867 83.1954C102.841 82.1698 101.45 81.5937 100 81.5937C98.5496 81.5937 97.1586 82.1698 96.133 83.1954C95.1074 84.221 94.5312 85.612 94.5312 87.0624ZM142.487 137.297C144.328 136.233 145.853 134.698 146.904 132.85C147.977 131.014 148.542 128.926 148.54 126.799C148.538 124.672 147.97 122.584 146.894 120.749C146.894 120.749 146.893 120.748 146.893 120.748L110.467 57.8164C109.404 55.9811 107.878 54.4574 106.041 53.3981C104.204 52.3388 102.121 51.7812 100 51.7812C97.8794 51.7812 95.796 52.3388 93.959 53.3981C92.1219 54.4574 90.5956 55.9811 89.5332 57.8164L53.1053 120.751C52.0413 122.589 51.4802 124.675 51.4785 126.799C51.4768 128.923 52.0345 131.01 53.0955 132.85C54.1564 134.69 55.6833 136.218 57.5224 137.281C59.3615 138.343 61.448 138.903 63.572 138.903L136.425 138.903C136.425 138.903 136.426 138.903 136.426 138.903C138.553 138.915 140.645 138.361 142.487 137.297ZM100 109.75C98.5908 109.75 97.2132 110.168 96.0415 110.951C94.8698 111.734 93.9566 112.846 93.4173 114.148C92.878 115.45 92.7369 116.883 93.0119 118.265C93.2868 119.647 93.9654 120.917 94.9618 121.913C95.9583 122.91 97.2278 123.588 98.6099 123.863C99.9921 124.138 101.425 123.997 102.727 123.458C104.029 122.918 105.141 122.005 105.924 120.833C106.707 119.662 107.125 118.284 107.125 116.875C107.125 114.985 106.374 113.173 105.038 111.837C103.702 110.501 101.89 109.75 100 109.75Z" fill="#FCF7F8" stroke="#CD533B"/>
</g>
</g>
</svg>
