<svg width="200" height="200" viewBox="0 0 200 200" fill="none" xmlns="http://www.w3.org/2000/svg">
<g id="Loading-icon">
<path id="Circle-loading" d="M53.9806 31.1269C67.6025 22.0251 83.6175 17.167 100 17.167C110.878 17.167 121.65 19.3095 131.699 23.4723C141.749 27.6351 150.881 33.7365 158.572 41.4283C166.264 49.1201 172.366 58.2516 176.528 68.3014C180.691 78.3512 182.834 89.1225 182.834 100C182.834 116.383 177.976 132.398 168.874 146.02C159.772 159.642 146.835 170.259 131.699 176.528C116.563 182.798 99.9085 184.438 83.8404 181.242C67.7723 178.046 53.0128 170.157 41.4284 158.572C29.8439 146.988 21.9548 132.228 18.7586 116.16C15.5625 100.092 17.2029 83.4372 23.4723 68.3014C29.7418 53.1656 40.3588 40.2288 53.9806 31.1269ZM62.6846 155.847C73.7301 163.228 86.716 167.167 100 167.167C117.814 167.167 134.898 160.091 147.494 147.494C160.091 134.898 167.167 117.814 167.167 100C167.167 86.716 163.228 73.73 155.847 62.6845C148.467 51.639 137.977 43.0301 125.704 37.9464C113.431 32.8627 99.9259 31.5326 86.8968 34.1243C73.8677 36.7159 61.8998 43.1129 52.5064 52.5063C43.1129 61.8998 36.7159 73.8677 34.1243 86.8968C31.5326 99.9258 32.8628 113.431 37.9465 125.704C43.0301 137.977 51.6391 148.467 62.6846 155.847Z" stroke="#009AFE"/>
</g>
</svg>
