<svg width="200" height="200" viewBox="0 0 200 200" fill="none" xmlns="http://www.w3.org/2000/svg">
<g id="Succes-icon">
<path id="Circle-succes" d="M54.5914 31.8757C68.1311 22.8288 84.0494 18 100.333 18C111.146 18 121.852 20.1296 131.841 24.2672C141.83 28.4049 150.906 34.4695 158.552 42.1149C166.197 49.7602 172.262 58.8366 176.399 68.8257C180.537 78.8149 182.667 89.5212 182.667 100.333C182.667 116.617 177.838 132.536 168.791 146.075C159.744 159.615 146.885 170.168 131.841 176.399C116.797 182.631 100.242 184.262 84.2709 181.085C68.2998 177.908 53.6294 170.066 42.1149 158.552C30.6004 147.037 22.7589 132.367 19.582 116.396C16.4052 100.425 18.0357 83.8702 24.2673 68.8257C30.4989 53.7813 41.0518 40.9226 54.5914 31.8757Z" fill="#FCA500" stroke="#FCA500" stroke-width="2"/>
</g>
</svg>
