<svg width="98" height="98" viewBox="0 0 98 98" fill="none" xmlns="http://www.w3.org/2000/svg">
<path d="M88.3479 49V48.5C86.6223 48.5 85.1572 47.8571 83.9259 46.5465C82.6937 45.2349 82.0782 43.6602 82.0782 41.7941V29.1838C82.0782 28.5683 81.862 28.0238 81.4402 27.5748C81.0178 27.1252 80.4922 26.8823 79.8858 26.8823H78.1933C77.3841 26.8823 76.715 26.5866 76.1558 25.9752C75.5905 25.3572 75.3085 24.6249 75.3085 23.7512C75.3085 22.8818 75.5962 22.1631 76.1732 21.5651C76.7544 20.9627 77.4201 20.6765 78.1933 20.6765H81.5782C83.3038 20.6765 84.7689 21.3193 86.0002 22.6299C87.2324 23.9415 87.8479 25.5162 87.8479 27.3823V38.1912C87.8479 40.2348 88.1919 42.0104 88.9013 43.5008C89.5923 44.9525 90.5121 45.897 91.7328 45.897C92.5014 45.897 93.1658 46.189 93.7483 46.809C94.3314 47.4297 94.6176 48.1518 94.6176 49C94.6176 49.8482 94.3314 50.5703 93.7483 51.1909C93.1679 51.8088 92.4955 52.1029 91.7063 52.1029C90.4687 52.1029 89.5484 53.0459 88.8727 54.5038C88.1825 55.9929 87.8479 57.7668 87.8479 59.8088V70.6176C87.8479 72.4838 87.2324 74.0584 86.0002 75.3701C84.7689 76.6806 83.3038 77.3235 81.5782 77.3235H78.1933C77.3841 77.3235 76.715 77.0277 76.1558 76.4164C75.5905 75.7984 75.3085 75.0661 75.3085 74.1924C75.3085 73.3229 75.5962 72.6042 76.1732 72.0063C76.7544 71.4039 77.4201 71.1176 78.1933 71.1176H79.8858C80.4922 71.1176 81.0178 70.8747 81.4402 70.4252L81.0758 70.0828L81.4402 70.4252C81.862 69.9762 82.0782 69.4316 82.0782 68.8162V56.2059C82.0782 54.3397 82.6937 52.7651 83.9259 51.4534C85.1572 50.1428 86.6223 49.5 88.3479 49.5V49Z" fill="#FCF7F8" stroke="#4F4F4F"/>
<path fill-rule="evenodd" clip-rule="evenodd" d="M24.4084 29.7845C23.7362 29.7845 23.1913 30.3294 23.1913 31.0015V67.5326C23.1913 68.2047 23.7362 68.7496 24.4084 68.7496H29.3901C30.0622 68.7496 30.6071 68.2047 30.6071 67.5326V58.8338C30.6071 58.1616 31.152 57.6167 31.8242 57.6167H33.098C33.7701 57.6167 34.315 58.1616 34.315 58.8338V61.9661C34.315 62.6383 34.8599 63.1832 35.5321 63.1832H36.8059C37.478 63.1832 38.0229 63.7281 38.0229 64.4002V67.5326C38.0229 68.2047 38.5678 68.7496 39.24 68.7496H47.9295C48.6017 68.7496 49.1466 68.2047 49.1466 67.5326V64.4002C49.1466 63.7281 48.6017 63.1832 47.9295 63.1832H46.6557C45.9836 63.1832 45.4387 62.6383 45.4387 61.9661V58.8338C45.4387 58.1616 44.8938 57.6167 44.2216 57.6167H42.9478C42.2757 57.6167 41.7308 57.0718 41.7308 56.3997V53.2673C41.7308 52.5952 42.2757 52.0503 42.9478 52.0503H47.9295C48.6017 52.0503 49.1466 51.5054 49.1466 50.8332V36.568C49.1466 35.8958 48.6017 35.3509 47.9295 35.3509H46.6557C45.9836 35.3509 45.4387 34.806 45.4387 34.1339V31.0015C45.4387 30.3294 44.8938 29.7845 44.2216 29.7845H24.4084ZM41.7308 36.568C41.7308 35.8958 41.1859 35.3509 40.5137 35.3509H31.8242C31.152 35.3509 30.6071 35.8958 30.6071 36.568V50.8332C30.6071 51.5054 31.152 52.0503 31.8242 52.0503H36.8059C37.478 52.0503 38.0229 51.5054 38.0229 50.8332V47.7009C38.0229 47.0287 38.5678 46.4838 39.24 46.4838H40.5137C41.1859 46.4838 41.7308 45.9389 41.7308 45.2668V36.568Z" fill="#FCF7F8"/>
<path fill-rule="evenodd" clip-rule="evenodd" d="M51.0005 31.0015C51.0005 30.3294 51.5454 29.7845 52.2176 29.7845H68.3229C68.9951 29.7845 69.54 30.3294 69.54 31.0015V34.1339C69.54 34.806 70.0849 35.3509 70.757 35.3509H72.0308C72.703 35.3509 73.2479 35.8958 73.2479 36.568V39.7003C73.2479 40.3725 73.7928 40.9174 74.4649 40.9174H75.7387C76.4109 40.9174 76.9558 41.4623 76.9558 42.1344V56.3997C76.9558 57.0718 76.4109 57.6167 75.7387 57.6167H74.4649C73.7928 57.6167 73.2479 58.1616 73.2479 58.8338V61.9661C73.2479 62.6383 72.703 63.1832 72.0308 63.1832H70.757C70.0849 63.1832 69.54 63.7281 69.54 64.4002V67.5326C69.54 68.2047 68.9951 68.7496 68.3229 68.7496H52.2176C51.5454 68.7496 51.0005 68.2047 51.0005 67.5326V31.0015ZM65.8321 36.568C65.8321 35.8958 65.2872 35.3509 64.615 35.3509H59.6334C58.9612 35.3509 58.4163 35.8958 58.4163 36.568V61.9661C58.4163 62.6383 58.9612 63.1832 59.6334 63.1832H64.615C65.2872 63.1832 65.8321 62.6383 65.8321 61.9661V58.8338C65.8321 58.1616 66.377 57.6167 67.0491 57.6167H68.3229C68.9951 57.6167 69.54 57.0718 69.54 56.3997V42.1344C69.54 41.4623 68.9951 40.9174 68.3229 40.9174H67.0491C66.377 40.9174 65.8321 40.3725 65.8321 39.7003V36.568Z" fill="#FCF7F8"/>
<path fill-rule="evenodd" clip-rule="evenodd" d="M24.4084 29.7845C23.7362 29.7845 23.1913 30.3294 23.1913 31.0015V67.5326C23.1913 68.2047 23.7362 68.7496 24.4084 68.7496H29.3901C30.0622 68.7496 30.6071 68.2047 30.6071 67.5326V58.8338C30.6071 58.1616 31.152 57.6167 31.8242 57.6167H33.098C33.7701 57.6167 34.315 58.1616 34.315 58.8338V61.9661C34.315 62.6383 34.8599 63.1832 35.5321 63.1832H36.8059C37.478 63.1832 38.0229 63.7281 38.0229 64.4002V67.5326C38.0229 68.2047 38.5678 68.7496 39.24 68.7496H47.9295C48.6017 68.7496 49.1466 68.2047 49.1466 67.5326V64.4002C49.1466 63.7281 48.6017 63.1832 47.9295 63.1832H46.6557C45.9836 63.1832 45.4387 62.6383 45.4387 61.9661V58.8338C45.4387 58.1616 44.8938 57.6167 44.2216 57.6167H42.9478C42.2757 57.6167 41.7308 57.0718 41.7308 56.3997V53.2673C41.7308 52.5952 42.2757 52.0503 42.9478 52.0503H47.9295C48.6017 52.0503 49.1466 51.5054 49.1466 50.8332V36.568C49.1466 35.8958 48.6017 35.3509 47.9295 35.3509H46.6557C45.9836 35.3509 45.4387 34.806 45.4387 34.1339V31.0015C45.4387 30.3294 44.8938 29.7845 44.2216 29.7845H24.4084ZM41.7308 36.568C41.7308 35.8958 41.1859 35.3509 40.5137 35.3509H31.8242C31.152 35.3509 30.6071 35.8958 30.6071 36.568V50.8332C30.6071 51.5054 31.152 52.0503 31.8242 52.0503H36.8059C37.478 52.0503 38.0229 51.5054 38.0229 50.8332V47.7009C38.0229 47.0287 38.5678 46.4838 39.24 46.4838H40.5137C41.1859 46.4838 41.7308 45.9389 41.7308 45.2668V36.568Z" stroke="#4F4F4F" stroke-linecap="round" stroke-linejoin="round"/>
<path fill-rule="evenodd" clip-rule="evenodd" d="M51.0005 31.0015C51.0005 30.3294 51.5454 29.7845 52.2176 29.7845H68.3229C68.9951 29.7845 69.54 30.3294 69.54 31.0015V34.1339C69.54 34.806 70.0849 35.3509 70.757 35.3509H72.0308C72.703 35.3509 73.2479 35.8958 73.2479 36.568V39.7003C73.2479 40.3725 73.7928 40.9174 74.4649 40.9174H75.7387C76.4109 40.9174 76.9558 41.4623 76.9558 42.1344V56.3997C76.9558 57.0718 76.4109 57.6167 75.7387 57.6167H74.4649C73.7928 57.6167 73.2479 58.1616 73.2479 58.8338V61.9661C73.2479 62.6383 72.703 63.1832 72.0308 63.1832H70.757C70.0849 63.1832 69.54 63.7281 69.54 64.4002V67.5326C69.54 68.2047 68.9951 68.7496 68.3229 68.7496H52.2176C51.5454 68.7496 51.0005 68.2047 51.0005 67.5326V31.0015ZM65.8321 36.568C65.8321 35.8958 65.2872 35.3509 64.615 35.3509H59.6334C58.9612 35.3509 58.4163 35.8958 58.4163 36.568V61.9661C58.4163 62.6383 58.9612 63.1832 59.6334 63.1832H64.615C65.2872 63.1832 65.8321 62.6383 65.8321 61.9661V58.8338C65.8321 58.1616 66.377 57.6167 67.0491 57.6167H68.3229C68.9951 57.6167 69.54 57.0718 69.54 56.3997V42.1344C69.54 41.4623 68.9951 40.9174 68.3229 40.9174H67.0491C66.377 40.9174 65.8321 40.3725 65.8321 39.7003V36.568Z" stroke="#4F4F4F" stroke-linecap="round" stroke-linejoin="round"/>
<path d="M4.25161 46.809L3.89608 46.475L4.25161 46.809C4.83204 46.1912 5.50444 45.897 6.29363 45.897C7.5313 45.897 8.45157 44.9541 9.12725 43.4962C9.81742 42.0071 10.152 40.2331 10.152 38.1912V27.3823C10.152 25.5162 10.7675 23.9415 11.9998 22.6299C13.231 21.3193 14.6962 20.6765 16.4218 20.6765H19.8066C20.6205 20.6765 21.2908 20.9665 21.8486 21.5603C22.4079 22.1556 22.6915 22.8844 22.6915 23.7794C22.6915 24.6744 22.4079 25.4032 21.8486 25.9985C21.2908 26.5923 20.6205 26.8823 19.8066 26.8823H18.1142C17.5077 26.8823 16.9821 27.1252 16.5598 27.5748C16.138 28.0238 15.9218 28.5683 15.9218 29.1838V41.7941C15.9218 43.6602 15.3063 45.2349 14.074 46.5465C12.8428 47.8571 11.3776 48.5 9.65204 48.5V49V49.5C11.3776 49.5 12.8428 50.1428 14.074 51.4534C15.3063 52.7651 15.9218 54.3397 15.9218 56.2059V68.8162C15.9218 69.4316 16.138 69.9762 16.5598 70.4252L16.9242 70.0828L16.5598 70.4252C16.9821 70.8747 17.5077 71.1176 18.1142 71.1176H19.8066C20.6205 71.1176 21.2908 71.4077 21.8486 72.0015C22.4097 72.5987 22.6915 73.3189 22.6915 74.1924C22.6915 75.0661 22.4094 75.7984 21.8441 76.4164C21.2849 77.0277 20.6159 77.3235 19.8066 77.3235H16.4218C14.6962 77.3235 13.231 76.6806 11.9998 75.3701C10.7675 74.0584 10.152 72.4838 10.152 70.6176V59.8088C10.152 57.7668 9.81742 55.9929 9.12725 54.5038C8.45157 53.0459 7.5313 52.1029 6.29363 52.1029C5.50444 52.1029 4.83204 51.8088 4.25161 51.1909C3.66854 50.5703 3.38232 49.8482 3.38232 49C3.38232 48.1518 3.66854 47.4297 4.25161 46.809Z" fill="#FCF7F8" stroke="#4F4F4F"/>
</svg>
