<svg width="50" height="50" viewBox="0 0 50 50" fill="none" xmlns="http://www.w3.org/2000/svg">
<g clip-path="url(#clip0)">
<path d="M29.0102 3C28.6908 3 28.3942 3.0685 28.1203 3.15978C28.7022 3.5475 29.0215 4.06083 29.1811 4.64267C29.1927 4.72256 29.2155 4.77967 29.2269 4.85939C29.2383 4.92789 29.2496 4.99639 29.2496 5.06472C29.2954 6.06861 28.9874 6.19405 28.7705 6.78728C28.4397 7.55167 28.531 8.373 28.9303 9.03456C28.9644 9.11445 29.0102 9.20573 29.0671 9.28562C28.6336 6.39939 31.0407 5.96595 31.4855 5.06472C31.5197 4.27773 30.8695 3.75283 30.3562 3.38789C29.8657 3.09111 29.4208 3 29.0102 3ZM32.6377 3.65016C32.5921 3.91261 32.6263 3.84411 32.6149 3.98111C32.6035 4.07239 32.6035 4.18645 32.5921 4.27773C32.5693 4.36883 32.5465 4.46011 32.5122 4.55139C32.4894 4.64284 32.4553 4.73395 32.4211 4.82522C32.3754 4.9165 32.3412 4.99639 32.2955 5.0875C32.2613 5.13322 32.2385 5.17895 32.2042 5.2245L32.1359 5.32717C32.0789 5.40706 32.0218 5.48695 31.9647 5.55528C31.8962 5.62378 31.8393 5.70367 31.7594 5.76061V5.772C31.6909 5.82911 31.6225 5.89762 31.5427 5.95456C31.3032 6.13711 31.0293 6.27395 30.7783 6.44511C30.6985 6.50205 30.6187 6.54778 30.5502 6.61628C30.4703 6.67322 30.4018 6.73016 30.3334 6.79884C30.2535 6.86717 30.1966 6.93567 30.1281 7.01556C30.0712 7.08389 30.0027 7.16395 29.9569 7.24367C29.9 7.32356 29.843 7.40328 29.7973 7.48317C29.7516 7.57462 29.7174 7.65434 29.6717 7.74544C29.6375 7.83689 29.6034 7.91678 29.5806 8.00789C29.5463 8.11056 29.5235 8.20184 29.5007 8.29311C29.4893 8.33884 29.4893 8.39578 29.4779 8.44151C29.4664 8.48706 29.4664 8.53278 29.4552 8.57834C29.4552 8.66962 29.4436 8.77228 29.4436 8.86356C29.4436 8.93206 29.4436 9.00039 29.4552 9.06889C29.4552 9.16017 29.4665 9.25145 29.4893 9.35412C29.5007 9.4454 29.5235 9.5365 29.5463 9.62778C29.5806 9.71923 29.6034 9.81034 29.6377 9.90162C29.6603 9.95856 29.6947 10.0157 29.7174 10.0614L27.0938 9.04612C26.6556 8.92133 26.2143 8.80718 25.7705 8.70378L25.0519 8.53278C24.3674 8.39578 23.6715 8.29311 22.9758 8.22478C22.953 8.22478 22.9414 8.21322 22.9188 8.21322C22.2403 8.14488 21.5587 8.11062 20.8767 8.11056C20.3748 8.11056 19.8728 8.13333 19.3824 8.1675C18.6864 8.21322 17.9907 8.3045 17.2946 8.41856C17.1236 8.44151 16.9524 8.47567 16.7814 8.51001C16.4277 8.57834 16.0855 8.65823 15.7548 8.73812L15.2413 8.87495C15.0703 8.94345 14.9105 9.02334 14.7509 9.09167L14.3744 9.26284C14.3516 9.27423 14.3286 9.27423 14.3174 9.28562C14.2032 9.34256 14.1005 9.38828 13.9979 9.44522C13.9704 9.45456 13.9437 9.46605 13.918 9.47956C13.7925 9.5365 13.6671 9.605 13.5644 9.66212C13.4845 9.69628 13.4046 9.74184 13.3363 9.776C13.3032 9.79698 13.2689 9.81605 13.2337 9.83311C13.131 9.89006 13.0283 9.94717 12.9369 10.0043C12.8344 10.0612 12.7431 10.1183 12.6632 10.1755C12.5833 10.2324 12.5036 10.2781 12.4351 10.3351C12.4237 10.3464 12.4123 10.3464 12.4008 10.3578C12.3324 10.4036 12.2525 10.4605 12.184 10.5176L12.1613 10.5404L11.9903 10.6772C11.9673 10.6888 11.9445 10.7116 11.9218 10.7229C11.8648 10.7685 11.8077 10.8256 11.7506 10.8713C11.7392 10.8939 11.7164 10.9055 11.705 10.9169C11.6365 10.9854 11.568 11.0423 11.4997 11.1108C11.4881 11.1108 11.4881 11.1222 11.4769 11.1336C11.4084 11.1906 11.3399 11.2591 11.2716 11.3276C11.26 11.3389 11.26 11.3503 11.2486 11.3503C11.1917 11.4073 11.1348 11.4644 11.0777 11.5329C11.0549 11.5557 11.0207 11.5784 10.9978 11.6012C10.9408 11.6697 10.8723 11.7382 10.8038 11.8066C10.7924 11.8295 10.7697 11.8409 10.7581 11.8637C10.667 11.9549 10.5871 12.0462 10.4958 12.1375L10.4617 12.1717C10.2791 12.3656 10.0851 12.5596 9.87982 12.7307C9.67754 12.9112 9.46413 13.0789 9.24087 13.2327C9.01967 13.3878 8.79131 13.5324 8.55654 13.6661C8.32371 13.7938 8.08376 13.908 7.83787 14.0083C7.5952 14.1114 7.34771 14.2028 7.09626 14.2821C6.61726 14.3848 6.12653 14.5787 5.70465 14.6129C5.6132 14.6129 5.5107 14.6357 5.41942 14.6471C5.31676 14.67 5.22548 14.6928 5.1342 14.7156L4.86036 14.8182C4.76909 14.8524 4.67798 14.8981 4.5867 14.9437C4.50681 15.0006 4.41553 15.0463 4.33564 15.1035C4.25575 15.1604 4.17604 15.2289 4.10753 15.2974C4.02764 15.3543 3.94775 15.4342 3.87942 15.5027C3.81092 15.5826 3.74242 15.6511 3.68548 15.7308C3.62854 15.8221 3.56004 15.902 3.51431 15.9931C3.45737 16.0732 3.40026 16.1643 3.35453 16.2556C3.30898 16.3582 3.26342 16.4495 3.22909 16.5523C3.1931 16.6505 3.15888 16.7494 3.12642 16.8488C3.10364 16.9401 3.08087 17.0313 3.06948 17.1226C3.06948 17.134 3.05792 17.1454 3.05792 17.1568C3.03514 17.2595 3.03514 17.3965 3.02375 17.4648C3.01236 17.5447 3.00098 17.6132 3.00098 17.6929C3.00098 17.7386 3.00098 17.7956 3.01236 17.8413C3.02375 17.9212 3.03514 17.9897 3.05809 18.058C3.08087 18.1265 3.10364 18.1948 3.13798 18.2633V18.2747C3.17215 18.3432 3.2177 18.4117 3.26342 18.4801C3.30898 18.5486 3.3547 18.6171 3.41182 18.6854C3.46876 18.7423 3.53709 18.811 3.60559 18.868C3.67409 18.9365 3.74259 18.9934 3.82231 19.0505C4.09615 19.29 4.16465 19.3699 4.5182 19.5525C4.57514 19.5866 4.63226 19.6094 4.70076 19.6437C4.71215 19.6437 4.72353 19.6551 4.73492 19.6551C4.73492 19.6779 4.73492 19.6893 4.74648 19.7121C4.75787 19.8035 4.78065 19.8946 4.80342 19.9859C4.8262 20.0886 4.86036 20.1798 4.8947 20.2597C4.92887 20.3282 4.95164 20.3966 4.98598 20.4651C4.99737 20.4878 5.00876 20.5108 5.02015 20.522C5.06587 20.6135 5.1116 20.6932 5.15715 20.7731L5.32815 21.0126C5.38509 21.0811 5.45359 21.161 5.52209 21.2295C5.59059 21.2978 5.65909 21.3549 5.73881 21.4232C5.73881 21.4232 5.75037 21.4348 5.76159 21.4348C5.83009 21.4917 5.89859 21.5487 5.96692 21.5944C6.04681 21.6513 6.1267 21.6971 6.21798 21.7428C6.29787 21.7883 6.38915 21.8341 6.48026 21.8682C6.54876 21.9024 6.62865 21.9252 6.70854 21.9481C6.71993 21.9595 6.73131 21.9595 6.75409 21.9709C6.79982 21.9823 6.85676 21.9937 6.90248 22.0051C6.86815 22.6211 6.85676 23.2029 6.94804 23.4082C7.0507 23.6363 7.55265 22.9406 8.05459 22.1421C7.98626 22.9291 7.94071 23.8531 8.05459 24.1269C8.18004 24.4121 8.86454 23.5223 9.45776 22.5412C17.5458 20.6704 24.9264 26.2601 25.7022 34.1542C25.5538 32.9222 24.0368 32.2377 23.3409 32.4089C22.9985 33.253 22.4169 34.3368 21.4815 35.0097C21.5612 34.2569 21.527 33.4811 21.3673 32.7283C21.1164 33.7777 20.6258 34.7589 19.9527 35.603C18.8691 35.6829 17.7855 35.1581 17.2149 34.371C17.1693 34.3368 17.1579 34.2683 17.1238 34.2226C17.0894 34.1429 17.0553 34.063 17.0323 33.9831C16.9991 33.9066 16.9761 33.8261 16.964 33.7436C16.9526 33.6637 16.9526 33.5838 16.9526 33.4925V33.3215C16.964 33.2416 16.9868 33.1617 17.0095 33.0819C17.0323 33.0021 17.0553 32.9222 17.0894 32.8424C17.1352 32.7625 17.1693 32.6826 17.2263 32.6029C17.4202 32.0552 17.4202 31.6104 17.0667 31.3479C16.9982 31.3032 16.9256 31.2651 16.8499 31.234C16.8042 31.2225 16.7473 31.1995 16.7015 31.1883C16.6674 31.1767 16.6446 31.1653 16.6103 31.154C16.5305 31.1312 16.4507 31.1084 16.3708 31.097C16.2929 31.0745 16.2123 31.0629 16.1313 31.0627C16.0514 31.0513 15.9601 31.0399 15.8802 31.0399C15.8233 31.0399 15.7663 31.0513 15.709 31.0513C15.6179 31.0513 15.538 31.0629 15.4582 31.0856C15.3783 31.097 15.2984 31.1084 15.2187 31.1312C15.1388 31.154 15.0589 31.1769 14.979 31.2111C14.8993 31.2452 14.8306 31.2796 14.7509 31.3137C14.6824 31.3479 14.614 31.3936 14.5342 31.4278C11.8762 33.1619 13.4618 37.2229 15.2756 38.3979C14.5911 38.5234 13.8952 38.6718 13.7014 38.82L13.6787 38.8427C14.169 39.1395 14.6824 39.3904 15.2187 39.6071C15.9487 39.8466 16.7245 40.0634 17.0667 40.1546V40.166C18.0118 40.3598 18.9782 40.4289 19.9413 40.3714C24.9949 40.0176 29.1359 36.1734 29.8888 31.1084C29.9115 31.2111 29.9345 31.3024 29.9573 31.405C29.9914 31.6104 30.0372 31.8271 30.0599 32.0438V32.0554C30.0827 32.158 30.0941 32.2607 30.1057 32.352V32.3975C30.1171 32.5002 30.1284 32.6029 30.1284 32.6941C30.1398 32.8196 30.1512 32.945 30.1512 33.0706V33.253C30.1512 33.3101 30.1626 33.3786 30.1626 33.4356C30.1626 33.5041 30.1512 33.5726 30.1512 33.6409V33.8007C30.1512 33.8806 30.1398 33.9491 30.1398 34.0288C30.1398 34.0745 30.1398 34.1201 30.1283 34.1772C30.1283 34.2569 30.1169 34.3368 30.1169 34.4281C30.1055 34.4622 30.1055 34.4966 30.1055 34.5307C30.0941 34.622 30.0827 34.7019 30.0712 34.793C30.0712 34.8274 30.0712 34.8615 30.0598 34.8959C30.0484 35.0097 30.0256 35.1126 30.0142 35.2266V35.2494C29.9914 35.3521 29.9685 35.4663 29.9457 35.569V35.6031L29.8772 35.9111C29.8772 35.9225 29.8658 35.9453 29.8658 35.9567C29.843 36.0594 29.8203 36.162 29.7859 36.2649V36.299C29.7518 36.4131 29.7176 36.5157 29.6948 36.6184C29.6833 36.6298 29.6833 36.6412 29.6833 36.6412L29.5806 36.9834C29.535 37.0976 29.5009 37.2003 29.4552 37.3143C29.4096 37.4282 29.3753 37.5424 29.3297 37.6451C29.284 37.7591 29.2383 37.8618 29.1929 37.9759H29.1813C29.1358 38.0785 29.09 38.1926 29.0329 38.2952C29.0236 38.3227 29.0122 38.3494 28.9988 38.3751C28.9874 38.3867 28.9874 38.3979 28.976 38.4095C28.2345 39.9038 27.1394 41.2156 25.7705 42.2423C25.6791 42.2992 25.588 42.3679 25.4967 42.4363C25.4739 42.459 25.4398 42.4706 25.4168 42.4932C25.3369 42.5503 25.2572 42.6074 25.1659 42.6644L25.2001 42.7329H25.2115L25.6907 42.6644H25.702C25.9988 42.6188 26.2953 42.5617 26.5919 42.5048C26.6718 42.4934 26.763 42.4706 26.8428 42.4478C26.8999 42.4363 26.9454 42.4249 27.0025 42.4135C27.0824 42.4021 27.1623 42.3793 27.242 42.3678C27.3105 42.345 27.379 42.3336 27.4474 42.3108C28.5883 42.037 29.6948 41.6605 30.7557 41.2156C28.9418 43.691 26.512 45.6874 23.6715 46.9993C24.9834 46.908 26.2953 46.6913 27.5616 46.3264C32.1588 44.9688 36.026 41.8774 38.3418 37.7136C37.8717 40.3548 36.8238 42.8595 35.273 45.0486C36.3785 44.3194 37.4 43.47 38.3188 42.5161C40.8743 39.8468 42.5511 36.4586 43.1216 32.8196C43.5107 34.625 43.6222 36.4792 43.4523 38.3182C51.6886 26.8306 44.1368 14.9211 40.9769 11.784C40.9654 11.7612 40.9542 11.7498 40.9542 11.727C40.9426 11.7384 40.9426 11.7384 40.9426 11.7498C40.9426 11.7382 40.9426 11.7382 40.9312 11.727C40.9312 11.8638 40.9198 12.0007 40.9084 12.1377C40.8743 12.4 40.8399 12.651 40.7944 12.9021C40.7374 13.153 40.6689 13.4038 40.6004 13.6549C40.5192 13.9018 40.4278 14.1453 40.3266 14.3848C40.2239 14.6131 40.1099 14.8526 39.9844 15.0808C39.859 15.2976 39.7222 15.5257 39.5738 15.731C39.4271 15.9432 39.2711 16.1487 39.1062 16.347C38.9348 16.5523 38.7524 16.7349 38.5699 16.9175C38.4625 17.0157 38.3522 17.1108 38.2391 17.2025C38.1477 17.2824 38.0679 17.3509 37.9767 17.4308C37.7713 17.5904 37.566 17.7388 37.3379 17.8756C37.1212 18.0125 36.8929 18.1495 36.6649 18.2635C36.4251 18.3776 36.1856 18.4802 35.9461 18.5829C35.703 18.6747 35.4555 18.7546 35.2047 18.8224C34.9524 18.8903 34.6974 18.9474 34.4403 18.9936C34.178 19.0393 33.9157 19.0621 33.6647 19.0848C33.4821 19.0962 33.2995 19.1076 33.117 19.1076C32.8547 19.1076 32.5923 19.0848 32.3414 19.0621C32.0789 19.0391 31.8165 19.005 31.5656 18.9478C31.3033 18.9023 31.0523 18.834 30.8012 18.7541H30.7898C31.0409 18.7311 31.2919 18.7083 31.5428 18.6626C31.8002 18.6177 32.0553 18.5607 32.3072 18.4916C32.558 18.4238 32.8054 18.3439 33.0485 18.2521C33.2995 18.1607 33.539 18.0468 33.7673 17.9326C34.0068 17.8187 34.2235 17.6931 34.4517 17.5562C34.6684 17.4078 34.8853 17.2595 35.0906 17.0998C35.295 16.941 35.4892 16.7695 35.6723 16.5865C35.8662 16.4153 36.0374 16.2216 36.2086 16.0275C36.3753 15.8277 36.535 15.6223 36.6875 15.4115C36.7103 15.3773 36.7333 15.3317 36.7561 15.2976C36.8701 15.115 36.9842 14.9325 37.0868 14.7499C37.2123 14.5237 37.3266 14.2915 37.4292 14.054C37.5322 13.8153 37.6235 13.5717 37.7028 13.3241C37.7827 13.0843 37.8398 12.8334 37.8968 12.5825C37.9425 12.3202 37.9882 12.0692 38.0108 11.8181C38.0336 11.5558 38.0566 11.2936 38.0566 11.0425C38.0566 10.86 38.0452 10.6774 38.0338 10.4948C38.011 10.2326 37.9768 9.98151 37.9423 9.73045C37.8975 9.47315 37.8405 9.21813 37.7715 8.96623C37.6914 8.72673 37.6117 8.47567 37.5204 8.23617C37.429 7.99667 37.3151 7.757 37.2011 7.52889C37.0754 7.30078 36.95 7.0725 36.8132 6.85595C36.6675 6.64213 36.5153 6.43284 36.3568 6.22839C36.185 6.03162 36.0101 5.83765 35.8321 5.64656C35.7359 5.54871 35.637 5.45365 35.5354 5.36151C35.0244 4.96457 34.4952 4.59147 33.9497 4.24339C33.876 4.20089 33.7999 4.16286 33.7216 4.12951C33.3453 3.88984 32.9917 3.76439 32.638 3.65034L32.6377 3.65016Z" fill="#E0234E"/>
</g>
<defs>
<clipPath id="clip0">
<rect width="44.1726" height="44" fill="white" transform="translate(3 3)"/>
</clipPath>
</defs>
</svg>
