<svg width="50" height="50" viewBox="0 0 50 50" fill="none" xmlns="http://www.w3.org/2000/svg">
<path d="M47.4451 29.5106C47.1759 28.6953 46.4708 28.1275 45.5589 27.9912C45.1289 27.9271 44.6365 27.9544 44.0537 28.0745C43.038 28.2841 42.2845 28.3639 41.7345 28.3793C43.8103 24.8747 45.4982 20.8781 46.4699 17.116C48.0412 11.0328 47.2015 8.26148 46.2204 7.00797C43.6237 3.69007 39.8353 1.90767 35.265 1.85313C32.8269 1.82332 30.6866 2.30469 29.57 2.65086C28.5305 2.46743 27.4127 2.36502 26.2398 2.34608C24.0413 2.311 22.0988 2.79028 20.4389 3.7753C19.52 3.46455 18.0452 3.02649 16.3421 2.74696C12.3364 2.08934 9.10793 2.60176 6.74647 4.27C3.88697 6.28986 2.56139 9.79926 2.80655 14.7007C2.88441 16.2569 3.75492 20.9917 5.12557 25.4821C5.91331 28.0631 6.75331 30.2065 7.62224 31.8531C8.85453 34.1881 10.1731 35.5631 11.6533 36.057C12.483 36.3333 13.9904 36.5269 15.5759 35.2065C15.7769 35.4499 16.045 35.6917 16.4008 35.9163C16.8527 36.2013 17.4053 36.4342 17.9572 36.5722C19.946 37.0694 21.8089 36.945 23.3982 36.2481C23.4081 36.5308 23.4156 36.8009 23.4219 37.0341C23.4324 37.4124 23.4429 37.7833 23.4568 38.1301C23.551 40.4755 23.7106 42.2991 24.1833 43.575C24.2093 43.6452 24.2442 43.7522 24.281 43.8656C24.5169 44.5878 24.9113 45.7967 25.9147 46.7435C26.9537 47.7243 28.2106 48.0251 29.3617 48.0251C29.939 48.0251 30.4898 47.9493 30.9729 47.8459C32.695 47.4767 34.6509 46.9145 36.0657 44.8999C37.4034 42.9955 38.0536 40.127 38.1713 35.6073C38.1866 35.4795 38.2006 35.3574 38.2141 35.2412L38.2422 35.0023L38.5573 35.03L38.6385 35.0355C40.3925 35.1154 42.5372 34.7435 43.8544 34.1316C44.8951 33.6487 48.2304 31.8878 47.4451 29.5106" fill="black"/>
<path d="M44.4462 29.973C39.2309 31.0488 38.8722 29.2831 38.8722 29.2831C44.3787 21.1123 46.6807 10.7407 44.6944 8.2023C39.2749 1.27802 29.8937 4.55278 29.7371 4.63766L29.6868 4.64678C28.6564 4.43283 27.5033 4.30552 26.2072 4.2843C23.8475 4.24572 22.0574 4.90298 20.699 5.93308C20.699 5.93308 3.96396 -0.961214 4.7424 14.6038C4.90795 17.9151 9.48848 39.6587 14.9518 33.0911C16.9487 30.6895 18.8782 28.6589 18.8782 28.6589C19.8364 29.2955 20.9836 29.6203 22.1863 29.5037L22.2798 29.4244C22.2506 29.7225 22.264 30.0142 22.3171 30.3595C20.9096 31.932 21.3233 32.208 18.5098 32.7872C15.6627 33.374 17.3352 34.4185 18.4272 34.6917C19.751 35.0226 22.8136 35.4915 24.8829 32.5947L24.8005 32.9252C25.3518 33.367 25.739 35.7982 25.6741 38.0024C25.6092 40.2064 25.5659 41.7196 26.0003 42.9015C26.435 44.0835 26.868 46.7429 30.5668 45.9504C33.6572 45.2881 35.2589 43.5718 35.4817 40.7088C35.6397 38.6735 35.9977 38.9744 36.0201 37.1547L36.3072 36.2933C36.6381 33.5343 36.3598 32.6441 38.2637 33.0581L38.7267 33.0988C40.1279 33.1625 41.9622 32.8733 43.0387 32.373C45.3567 31.2973 46.7316 29.501 44.4459 29.973H44.4462" fill="#336791"/>
<path d="M21.6786 16.0846C21.2087 16.0192 20.7831 16.0797 20.5677 16.2428C20.4467 16.3345 20.4092 16.4408 20.399 16.5139C20.372 16.7077 20.5077 16.922 20.5912 17.0325C20.8272 17.3453 21.172 17.5603 21.5133 17.6077C21.5627 17.6147 21.612 17.6178 21.6609 17.6178C22.23 17.6178 22.7475 17.1747 22.7931 16.8476C22.8501 16.438 22.2554 16.1649 21.6786 16.0848" fill="white"/>
<path d="M37.248 16.0977C37.2031 15.7766 36.6317 15.6851 36.0895 15.7605C35.548 15.8359 35.0229 16.0803 35.0668 16.4021C35.1018 16.6524 35.5538 17.0796 36.0886 17.0796C36.1339 17.0796 36.1795 17.0766 36.2254 17.0701C36.5825 17.0206 36.8445 16.7939 36.969 16.6632C37.1584 16.464 37.2681 16.242 37.248 16.0977" fill="white"/>
<path d="M46.1817 29.8508C45.9828 29.2494 45.3427 29.056 44.2793 29.2756C41.1219 29.9272 39.9911 29.4758 39.6199 29.2024C42.0741 25.4637 44.0931 20.9442 45.1823 16.7275C45.6982 14.7301 45.9832 12.8751 46.0065 11.3631C46.0323 9.70364 45.7496 8.48415 45.1667 7.7392C42.8164 4.73608 39.367 3.12518 35.1916 3.08099C32.321 3.04872 29.8957 3.78332 29.4256 3.9899C28.4355 3.74369 27.3561 3.59253 26.181 3.57324C24.0261 3.53834 22.1634 4.05426 20.6212 5.10592C19.9513 4.85655 18.2201 4.26224 16.1029 3.92116C12.4427 3.33193 9.53412 3.77841 7.4585 5.24885C4.98182 7.00355 3.83845 10.1401 4.05993 14.5712C4.13446 16.062 4.98393 20.6482 6.32442 25.0402C8.08894 30.8209 10.0071 34.0934 12.0252 34.7666C12.2614 34.8453 12.5337 34.9004 12.8341 34.9004C13.5703 34.9004 14.4729 34.5686 15.412 33.4396C16.5574 32.0655 17.7422 30.7248 18.9651 29.4192C19.7584 29.845 20.63 30.0828 21.5214 30.1066C21.5231 30.1299 21.5254 30.1533 21.5275 30.1764C21.374 30.3594 21.2238 30.545 21.0768 30.7332C20.4592 31.5173 20.3306 31.6805 18.3425 32.0898C17.777 32.2066 16.275 32.5161 16.2529 33.569C16.229 34.7194 18.0284 35.2025 18.2334 35.2538C18.9479 35.4326 19.6362 35.5208 20.2926 35.5208C21.8889 35.5208 23.2938 34.9961 24.4164 33.981C24.3819 38.082 24.5529 42.1231 25.0453 43.3544C25.4486 44.3624 26.4338 46.8257 29.5459 46.8255C30.0025 46.8255 30.5051 46.7724 31.058 46.6539C34.306 45.9577 35.7164 44.5221 36.262 41.3573C36.554 39.6659 37.055 35.6271 37.2907 33.4606C37.788 33.6158 38.4283 33.6869 39.1204 33.6867C40.564 33.6867 42.2298 33.38 43.2745 32.8951C44.448 32.3501 46.5657 31.0127 46.1817 29.8508V29.8508ZM38.447 15.2113C38.4363 15.8509 38.3483 16.4315 38.255 17.0376C38.1545 17.6894 38.0507 18.3633 38.0246 19.1814C37.9988 19.9776 38.0982 20.8053 38.1943 21.6058C38.3886 23.2227 38.588 24.8872 37.8162 26.5297C37.688 26.3025 37.5738 26.0678 37.4743 25.8267C37.3784 25.5941 37.17 25.2206 36.8815 24.7036C35.7594 22.6911 33.1315 17.9784 34.4768 16.0553C34.8775 15.483 35.8944 14.8944 38.447 15.2113V15.2113ZM35.3529 4.37606C39.0941 4.45865 42.0536 5.85824 44.1488 8.53571C45.7559 10.5894 43.9863 19.9341 38.8633 27.9958C38.8118 27.9302 38.76 27.865 38.708 27.7999L38.6431 27.7189C39.9669 25.5326 39.7081 23.3695 39.4776 21.4517C39.383 20.6646 39.2935 19.9213 39.3163 19.223C39.3398 18.4829 39.4377 17.8481 39.5324 17.2343C39.6486 16.478 39.767 15.6953 39.7344 14.7727C39.7588 14.6759 39.7686 14.5616 39.7558 14.4259C39.6725 13.5411 38.6624 10.8933 36.6036 8.49678C35.4774 7.18592 33.8351 5.719 31.5927 4.72959C32.5572 4.52967 33.8761 4.34326 35.3529 4.37606V4.37606ZM14.4182 32.6133C13.3836 33.8573 12.6691 33.6188 12.4341 33.5406C10.9032 33.03 9.12675 29.7941 7.56056 24.663C6.20534 20.2231 5.4134 15.7585 5.35062 14.5065C5.15281 10.5471 6.11258 7.78778 8.20345 6.30489C11.6062 3.89187 17.2007 5.33618 19.4487 6.06868C19.4164 6.10059 19.3828 6.1304 19.3509 6.16285C15.6619 9.8883 15.7494 16.2533 15.7585 16.6425C15.7582 16.7926 15.7708 17.0051 15.788 17.2975C15.8515 18.3681 15.9697 20.3606 15.654 22.617C15.3608 24.7138 16.0072 26.7661 17.4271 28.2478C17.5728 28.3995 17.726 28.544 17.886 28.6806C17.254 29.3575 15.8804 30.8544 14.4182 32.6133V32.6133ZM18.3602 27.3536C17.2158 26.1593 16.696 24.4983 16.934 22.7958C17.2672 20.4123 17.1442 18.3363 17.0781 17.221C17.0688 17.0649 17.0606 16.9281 17.0559 16.8203C17.5948 16.3424 20.0921 15.0044 21.8731 15.4125C22.6858 15.5985 23.181 16.152 23.3869 17.1039C24.4524 22.0321 23.5279 24.0862 22.785 25.7369C22.6319 26.0769 22.4873 26.3984 22.3638 26.7309L22.2681 26.9879C22.0257 27.6378 21.8002 28.2421 21.6604 28.8159C20.4437 28.8124 19.2602 28.2926 18.3602 27.3534V27.3536ZM18.547 33.9999C18.1917 33.9112 17.8722 33.757 17.6847 33.6292C17.8413 33.5555 18.12 33.4552 18.6033 33.3556C20.9421 32.8742 21.3034 32.5344 22.0922 31.5329C22.273 31.3031 22.478 31.0429 22.7619 30.7258L22.7622 30.7255C23.185 30.252 23.3785 30.3323 23.7292 30.4779C24.0135 30.5954 24.2904 30.9517 24.4026 31.3438C24.4557 31.529 24.5154 31.8804 24.3202 32.154C22.6724 34.4611 20.2714 34.4315 18.547 33.9999V33.9999ZM30.7873 45.3902C27.926 46.0033 26.9129 44.5434 26.2453 42.8744C25.8145 41.797 25.6026 36.9383 25.7529 31.5727C25.7548 31.5013 25.7447 31.4324 25.725 31.3675C25.7074 31.2394 25.6807 31.1127 25.6451 30.9884C25.4216 30.2076 24.8771 29.5546 24.2239 29.2838C23.9644 29.1763 23.4881 28.979 22.9157 29.1255C23.0377 28.6225 23.2494 28.0545 23.4789 27.4395L23.5752 27.1808C23.6836 26.8892 23.8197 26.5871 23.9635 26.2672C24.7409 24.5402 25.8055 22.1747 24.65 16.8308C24.2172 14.8292 22.7719 13.8517 20.5809 14.0788C19.2674 14.2147 18.0656 14.7447 17.4662 15.0486C17.3373 15.1138 17.2195 15.1769 17.1093 15.2383C17.2766 13.2216 17.9087 9.45269 20.2729 7.06808C21.7616 5.56696 23.7441 4.82552 26.1596 4.8655C30.919 4.94336 33.971 7.38584 35.6935 9.4213C37.1777 11.1751 37.9814 12.9419 38.3022 13.8949C35.89 13.6495 34.2495 14.1256 33.4179 15.3146C31.6087 17.9009 34.4077 22.9205 35.7529 25.333C35.9996 25.7751 36.2125 26.1572 36.2795 26.3196C36.7176 27.3813 37.2847 28.0901 37.6987 28.6074C37.8257 28.766 37.9488 28.9198 38.0425 29.0541C37.3119 29.2647 35.9996 29.7513 36.1192 32.1838C36.0228 33.4044 35.3369 39.1188 34.9885 41.1378C34.5285 43.8051 33.547 44.7985 30.7873 45.3904V45.3902ZM42.7303 31.723C41.9833 32.0697 40.7331 32.3297 39.5455 32.3857C38.2338 32.447 37.566 32.2387 37.4089 32.1105C37.3352 30.5947 37.8994 30.4363 38.4965 30.2687C38.5903 30.2424 38.6818 30.2166 38.7702 30.1857C38.8251 30.2304 38.8853 30.2748 38.9512 30.3183C40.0055 31.0141 41.8859 31.0892 44.5408 30.5412L44.5699 30.5354C44.2118 30.8702 43.5991 31.3194 42.7303 31.723Z" fill="white"/>
</svg>
