<svg width="300" height="300" viewBox="0 0 300 300" fill="none" xmlns="http://www.w3.org/2000/svg">
<path d="M232.483 109.824C229.759 108.889 227.011 108.023 224.243 107.227C224.708 105.327 225.136 103.45 225.516 101.606C231.754 71.325 227.676 46.93 213.747 38.898C200.392 31.198 178.551 39.227 156.493 58.424C154.319 60.3193 152.193 62.2693 150.118 64.272C148.729 62.9403 147.315 61.6344 145.877 60.355C122.759 39.829 99.587 31.178 85.673 39.233C72.33 46.957 68.379 69.89 73.995 98.588C74.5537 101.43 75.1846 104.258 75.887 107.068C72.607 108 69.442 108.992 66.413 110.048C39.309 119.498 22 134.307 22 149.668C22 165.533 40.582 181.446 68.812 191.095C71.1007 191.874 73.4084 192.596 75.733 193.26C74.978 196.287 74.3078 199.334 73.723 202.398C68.369 230.598 72.55 252.989 85.857 260.664C99.601 268.59 122.669 260.444 145.13 240.809C146.951 239.213 148.733 237.571 150.472 235.886C152.72 238.055 155.027 240.16 157.392 242.2C179.15 260.922 200.638 268.482 213.932 260.786C227.663 252.837 232.126 228.783 226.332 199.518C225.876 197.225 225.364 194.944 224.797 192.676C226.417 192.196 228.007 191.702 229.557 191.188C258.905 181.465 278 165.745 278 149.668C278 134.251 260.132 119.342 232.483 109.824V109.824ZM226.118 180.808C224.718 181.271 223.282 181.718 221.818 182.153C218.578 171.896 214.206 160.99 208.855 149.721C213.961 138.721 218.165 127.954 221.314 117.764C223.933 118.522 226.474 119.321 228.924 120.164C252.614 128.32 267.064 140.377 267.064 149.668C267.064 159.564 251.458 172.411 226.118 180.808V180.808ZM215.604 201.642C218.166 214.582 218.531 226.282 216.834 235.429C215.31 243.648 212.244 249.127 208.452 251.322C200.385 255.992 183.132 249.922 164.525 233.91C162.325 232.013 160.179 230.056 158.088 228.04C165.302 220.151 172.511 210.98 179.547 200.794C191.923 199.696 203.615 197.9 214.218 195.449C214.74 197.556 215.204 199.622 215.604 201.642V201.642ZM109.276 250.515C101.394 253.298 95.116 253.378 91.321 251.19C83.246 246.533 79.889 228.554 84.468 204.438C85.0123 201.588 85.6356 198.754 86.337 195.939C96.823 198.259 108.43 199.927 120.835 200.933C127.919 210.9 135.336 220.061 142.811 228.083C141.222 229.62 139.596 231.118 137.934 232.575C128.001 241.257 118.048 247.417 109.276 250.515V250.515ZM72.35 180.747C59.867 176.48 49.558 170.935 42.492 164.884C36.142 159.447 32.937 154.048 32.937 149.668C32.937 140.346 46.834 128.456 70.013 120.375C72.826 119.395 75.77 118.47 78.825 117.602C82.029 128.022 86.231 138.917 91.302 149.934C86.165 161.114 81.903 172.183 78.668 182.726C76.5461 182.118 74.4395 181.458 72.35 180.747V180.747ZM84.728 96.487C79.917 71.9 83.112 53.353 91.153 48.698C99.717 43.74 118.655 50.809 138.616 68.533C139.918 69.6914 141.198 70.8732 142.457 72.078C135.019 80.065 127.67 89.158 120.649 99.066C108.609 100.182 97.084 101.974 86.488 104.375C85.8352 101.761 85.2483 99.1314 84.728 96.488V96.487ZM195.155 123.755C192.652 119.432 190.057 115.163 187.37 110.952C195.538 111.985 203.364 113.356 210.713 115.032C208.507 122.104 205.757 129.497 202.52 137.077C200.154 132.588 197.698 128.146 195.155 123.755V123.755ZM150.123 79.894C155.167 85.359 160.219 91.46 165.188 98.08C155.108 97.604 145.011 97.602 134.931 98.074C139.905 91.515 145 85.422 150.123 79.894ZM104.802 123.83C102.29 128.186 99.8807 132.6 97.575 137.068C94.391 129.515 91.666 122.088 89.441 114.916C96.745 113.282 104.534 111.946 112.65 110.932C109.933 115.169 107.317 119.469 104.802 123.829V123.83ZM112.883 189.182C104.498 188.246 96.592 186.979 89.29 185.389C91.55 178.089 94.335 170.504 97.588 162.789C99.9028 167.261 102.323 171.677 104.845 176.035C107.439 180.515 110.125 184.903 112.883 189.182ZM150.425 220.212C145.241 214.62 140.071 208.433 135.022 201.779C139.924 201.971 144.921 202.069 150 202.069C155.218 202.069 160.376 201.952 165.453 201.726C160.468 208.5 155.435 214.696 150.425 220.212ZM202.623 162.395C206.045 170.195 208.929 177.74 211.219 184.915C203.797 186.609 195.783 187.973 187.339 188.986C190.045 184.697 192.665 180.354 195.198 175.96C197.773 171.494 200.249 166.971 202.623 162.395V162.395ZM185.725 170.496C181.847 177.232 177.751 183.841 173.444 190.311C165.642 190.864 157.822 191.138 150 191.134C142.033 191.134 134.284 190.886 126.822 190.402C122.402 183.947 118.228 177.327 114.309 170.556H114.31C110.409 163.821 106.766 156.94 103.387 149.929C106.757 142.916 110.39 136.032 114.277 129.292L114.276 129.293C118.162 122.551 122.303 115.959 126.689 109.532C134.302 108.956 142.109 108.656 149.999 108.656H150C157.926 108.656 165.743 108.959 173.354 109.539C177.696 115.957 181.81 122.526 185.689 129.234C189.589 135.959 193.27 142.809 196.725 149.774C193.306 156.81 189.637 163.721 185.725 170.496V170.496ZM208.285 48.372C216.857 53.316 220.191 73.253 214.805 99.398C214.461 101.066 214.075 102.765 213.655 104.488C203.033 102.036 191.5 100.213 179.425 99.08C172.391 89.063 165.102 79.956 157.785 72.072C159.703 70.2235 161.666 68.423 163.673 66.672C182.573 50.225 200.237 43.731 208.285 48.372V48.372ZM150 126.808C162.625 126.808 172.86 137.043 172.86 149.668C172.86 162.293 162.625 172.528 150 172.528C137.375 172.528 127.14 162.293 127.14 149.668C127.14 137.043 137.375 126.808 150 126.808V126.808Z" fill="#00D8FF"/>
</svg>
