<svg width="50" height="50" viewBox="0 0 50 50" fill="none" xmlns="http://www.w3.org/2000/svg">
<g clip-path="url(#clip0)">
<path d="M39.85 17.7755C39.3601 17.6074 38.866 17.4517 38.3683 17.3085C38.4519 16.9668 38.5288 16.6293 38.5972 16.2977C39.7189 10.8525 38.9856 6.46563 36.4808 5.02128C34.0793 3.63663 30.1517 5.08045 26.1851 8.53254C25.7942 8.87337 25.412 9.22402 25.0388 9.58415C24.7889 9.34467 24.5347 9.10984 24.2761 8.87978C20.1189 5.1887 15.952 3.63304 13.45 5.08152C11.0506 6.47049 10.3401 10.5944 11.35 15.755C11.4505 16.2661 11.5639 16.7746 11.6902 17.2799C11.1004 17.4475 10.5312 17.6259 9.98655 17.8158C5.11258 19.5151 2 22.1782 2 24.9405C2 27.7934 5.3415 30.6549 10.4179 32.39C10.8295 32.5301 11.2445 32.6599 11.6625 32.7794C11.5267 33.3236 11.4062 33.8716 11.3011 34.4226C10.3383 39.4937 11.0901 43.5201 13.4831 44.9003C15.9546 46.3256 20.1028 44.8607 24.1418 41.3298C24.4693 41.0428 24.7896 40.7476 25.1024 40.4446C25.5066 40.8345 25.9215 41.2131 26.3468 41.58C30.2594 44.9467 34.1235 46.3061 36.5141 44.9222C38.9833 43.4928 39.7858 39.1673 38.7439 33.9047C38.6618 33.4924 38.5698 33.0822 38.4679 32.6743C38.7592 32.588 39.0451 32.4992 39.3238 32.4068C44.6013 30.6583 48.0351 27.8315 48.0351 24.9405C48.0351 22.1681 44.822 19.4871 39.85 17.7755V17.7755ZM38.7054 30.5402C38.4537 30.6234 38.1954 30.7038 37.9322 30.7821C37.3495 28.9376 36.5634 26.9764 35.6011 24.95C36.5193 22.9719 37.2753 21.0357 37.8415 19.2033C38.3125 19.3396 38.7694 19.4833 39.21 19.6349C43.4701 21.1016 46.0685 23.2697 46.0685 24.9405C46.0685 26.72 43.2622 29.0302 38.7054 30.5402V30.5402ZM36.8148 34.2867C37.2755 36.6136 37.3411 38.7175 37.0359 40.3624C36.7619 41.8404 36.2105 42.8256 35.5286 43.2203C34.078 44.0601 30.9755 42.9686 27.6295 40.0892C27.2339 39.7482 26.848 39.3962 26.472 39.0337C27.7692 37.615 29.0656 35.9659 30.3308 34.1342C32.5563 33.9367 34.6588 33.6138 36.5655 33.173C36.6594 33.5519 36.7428 33.9234 36.8148 34.2867V34.2867ZM17.6944 43.0752C16.277 43.5757 15.1481 43.5901 14.4656 43.1966C13.0135 42.3592 12.4099 39.1261 13.2333 34.7894C13.3312 34.277 13.4432 33.7674 13.5694 33.2611C15.455 33.6783 17.5422 33.9783 19.773 34.1592C21.0468 35.9515 22.3806 37.5988 23.7248 39.0414C23.4391 39.3178 23.1467 39.5871 22.8478 39.8492C21.0616 41.4104 19.2718 42.5181 17.6944 43.0752V43.0752ZM11.0542 30.5292C8.80942 29.7619 6.9556 28.7648 5.68496 27.6767C4.54308 26.699 3.96674 25.7281 3.96674 24.9405C3.96674 23.2641 6.46576 21.126 10.6339 19.6729C11.1398 19.4966 11.6692 19.3303 12.2185 19.1742C12.7947 21.048 13.5503 23.0072 14.4622 24.9883C13.5384 26.9987 12.772 28.9892 12.1903 30.8851C11.8087 30.7758 11.4299 30.6571 11.0542 30.5292V30.5292ZM13.28 15.3772C12.4149 10.9559 12.9894 7.62065 14.4354 6.78356C15.9754 5.89199 19.3809 7.16317 22.9704 10.3504C23.2045 10.5587 23.4348 10.7712 23.6611 10.9879C22.3236 12.4241 21.0021 14.0593 19.7395 15.841C17.5744 16.0417 15.5019 16.3639 13.5965 16.7957C13.4791 16.3256 13.3736 15.8527 13.28 15.3774V15.3772ZM33.1375 20.2807C32.6875 19.5033 32.2207 18.7357 31.7376 17.9784C33.2064 18.1641 34.6137 18.4107 35.9352 18.712C35.5385 19.9838 35.044 21.3132 34.4619 22.6763C34.0365 21.869 33.5949 21.0703 33.1375 20.2807V20.2807ZM25.0397 12.3934C25.9467 13.3761 26.8552 14.4732 27.7487 15.6637C25.9361 15.5781 24.1204 15.5777 22.3078 15.6626C23.2022 14.4831 24.1184 13.3874 25.0397 12.3934ZM16.8898 20.2941C16.4382 21.0774 16.0049 21.8712 15.5902 22.6747C15.0177 21.3164 14.5277 19.9809 14.1275 18.6912C15.441 18.3974 16.8416 18.1571 18.3011 17.9748C17.8126 18.7367 17.342 19.51 16.8898 20.294V20.2941ZM18.343 32.046C16.8352 31.8777 15.4135 31.6499 14.1004 31.364C14.5068 30.0512 15.0076 28.6873 15.5926 27.2999C16.0088 28.104 16.444 28.8982 16.8976 29.6819C17.364 30.4875 17.847 31.2766 18.343 32.046ZM25.094 37.626C24.1618 36.6204 23.2321 35.5078 22.3241 34.3113C23.2056 34.3458 24.1042 34.3634 25.0175 34.3634C25.9559 34.3634 26.8834 34.3424 27.7964 34.3018C26.8999 35.5199 25.9949 36.6341 25.094 37.626ZM34.4804 27.2291C35.0958 28.6317 35.6144 29.9885 36.0262 31.2787C34.6916 31.5834 33.2504 31.8286 31.732 32.0108C32.2186 31.2394 32.6897 30.4585 33.1453 29.6684C33.6084 28.8653 34.0535 28.052 34.4804 27.2291V27.2291ZM31.4418 28.6858C30.7444 29.8972 30.0079 31.0856 29.2333 32.2491C27.8303 32.3484 26.4241 32.3978 25.0175 32.3971C23.5849 32.3971 22.1914 32.3525 20.8496 32.2654C20.0548 31.1046 19.3042 29.9142 18.5994 28.6966H18.5996C17.8981 27.4855 17.2429 26.2482 16.6354 24.9874C17.2414 23.7263 17.8946 22.4884 18.5937 21.2763L18.5935 21.2765C19.2923 20.0642 20.0369 18.8788 20.8257 17.723C22.1947 17.6194 23.5985 17.5655 25.0174 17.5655H25.0175C26.4428 17.5655 27.8485 17.62 29.2172 17.7243C29.998 18.8784 30.7378 20.0596 31.4353 21.2659C32.1367 22.4753 32.7986 23.7071 33.4198 24.9595C32.8049 26.2247 32.1452 27.4676 31.4418 28.6858V28.6858ZM35.4986 6.72494C37.0401 7.61399 37.6396 11.1992 36.6711 15.9007C36.6092 16.2006 36.5398 16.5061 36.4643 16.816C34.5542 16.375 32.4803 16.0472 30.3089 15.8435C29.044 14.0422 27.7333 12.4045 26.4175 10.9868C26.7623 10.6544 27.1154 10.3306 27.4763 10.0157C30.875 7.05816 34.0514 5.89038 35.4986 6.72494V6.72494ZM25.0175 20.8297C27.2878 20.8297 29.1283 22.6702 29.1283 24.9405C29.1283 27.2107 27.2878 29.0512 25.0175 29.0512C22.7473 29.0512 20.9068 27.2107 20.9068 24.9405C20.9068 22.6702 22.7473 20.8297 25.0175 20.8297V20.8297Z" fill="#00D8FF"/>
</g>
<defs>
<clipPath id="clip0">
<rect width="46.0351" height="41" fill="white" transform="translate(2 4.5)"/>
</clipPath>
</defs>
</svg>
