<svg width="50" height="50" viewBox="0 0 50 50" fill="none" xmlns="http://www.w3.org/2000/svg">
<rect width="50" height="50" rx="5" fill="#151515"/>
<path d="M5.12851 5.16534L5.12829 5.16556C4.40575 5.88894 4 6.86975 4 7.89225C4 8.91475 4.40575 9.89556 5.12829 10.6189L5.1284 10.6191L19.532 25.0351L5.1284 39.4512L5.12226 39.4573L5.11622 39.4636C4.41417 40.1911 4.02584 41.1653 4.03461 42.1764C4.04339 43.1874 4.44858 44.1548 5.16317 44.87C5.8778 45.5852 6.84469 45.9911 7.85565 45.9999C8.86661 46.0086 9.84041 45.6197 10.5674 44.917L10.5736 44.9109L10.5797 44.9048L24.9822 30.4899L39.3846 44.9048L39.3907 44.9109L39.397 44.917C40.1239 45.6197 41.0977 46.0086 42.1087 45.9999C43.1196 45.9911 44.0865 45.5852 44.8011 44.87C45.5157 44.1548 45.9209 43.1874 45.9297 42.1764C45.9385 41.1653 45.5501 40.1911 44.8481 39.4636L44.842 39.4573L44.8359 39.4512L30.4323 25.0351L44.8302 10.6247C45.1952 10.2702 45.4865 9.84691 45.6872 9.37924C45.8891 8.90872 45.9954 8.40268 45.9999 7.89065C46.0043 7.37862 45.9068 6.87082 45.7131 6.39685C45.5193 5.92289 45.2332 5.49223 44.8713 5.13004C44.5094 4.76784 44.079 4.48135 43.6052 4.28734C43.1314 4.09333 42.6238 3.99569 42.1118 4.00015C41.5999 4.0046 41.094 4.11105 40.6236 4.31327C40.1561 4.51427 39.7331 4.80585 39.3789 5.17116L24.9822 19.5803L10.5797 5.16545L10.5796 5.16534C9.85684 4.44215 8.87647 4.03572 7.85407 4.03572C6.83167 4.03572 5.8513 4.44215 5.12851 5.16534Z" fill="#FCF7F8" stroke="#151515" stroke-width="2"/>
</svg>
