<svg width="50" height="50" viewBox="0 0 50 50" fill="none" xmlns="http://www.w3.org/2000/svg">
<path d="M5.83581 5.87225C6.37114 5.33662 7.09711 5.03572 7.85407 5.03572C8.61103 5.03572 9.337 5.33662 9.87233 5.87225L24.9822 20.9951L40.092 5.87225C40.3553 5.59937 40.6703 5.3817 41.0186 5.23196C41.3669 5.08222 41.7415 5.0034 42.1205 5.00011C42.4996 4.99681 42.8755 5.0691 43.2263 5.21276C43.5771 5.35642 43.8958 5.56857 44.1639 5.83684C44.4319 6.1051 44.6439 6.42411 44.7874 6.77524C44.931 7.12637 45.0032 7.5026 44.9999 7.88197C44.9966 8.26134 44.9178 8.63625 44.7682 8.98484C44.6186 9.33342 44.4011 9.64869 44.1285 9.91225L29.0187 25.0351L44.1285 40.158C44.6485 40.6968 44.9362 41.4185 44.9297 42.1677C44.9232 42.9168 44.623 43.6334 44.0937 44.1632C43.5644 44.6929 42.8485 44.9934 42.1 44.9999C41.3515 45.0064 40.6304 44.7184 40.092 44.198L24.9822 29.0751L9.87233 44.198C9.33393 44.7184 8.61283 45.0064 7.86434 44.9999C7.11586 44.9934 6.39987 44.6929 5.87059 44.1632C5.3413 43.6334 5.04108 42.9168 5.03458 42.1677C5.02807 41.4185 5.31581 40.6968 5.83581 40.158L20.9456 25.0351L5.83581 9.91225C5.30064 9.37646 5 8.64986 5 7.89225C5 7.13464 5.30064 6.40805 5.83581 5.87225V5.87225Z" fill="#FCF7F8" stroke="#FCF7F8" stroke-width="2"/>
</svg>
