<svg width="43" height="42" viewBox="0 0 43 42" fill="none" xmlns="http://www.w3.org/2000/svg">
<path d="M1.83653 1.87225C2.37233 1.33662 3.09892 1.03572 3.85653 1.03572C4.61414 1.03572 5.34074 1.33662 5.87653 1.87225L20.9994 16.9951L36.1222 1.87225C36.3858 1.59937 36.7011 1.3817 37.0497 1.23196C37.3982 1.08222 37.7732 1.0034 38.1525 1.00011C38.5319 0.996811 38.9081 1.0691 39.2593 1.21276C39.6104 1.35642 39.9294 1.56857 40.1977 1.83684C40.4659 2.1051 40.6781 2.42411 40.8217 2.77524C40.9654 3.12637 41.0377 3.5026 41.0344 3.88197C41.0311 4.26134 40.9523 4.63625 40.8025 4.98484C40.6528 5.33342 40.4351 5.64869 40.1622 5.91225L25.0394 21.0351L40.1622 36.158C40.6827 36.6968 40.9707 37.4185 40.9642 38.1677C40.9577 38.9168 40.6572 39.6334 40.1274 40.1632C39.5977 40.6929 38.8811 40.9934 38.132 40.9999C37.3828 41.0064 36.6611 40.7184 36.1222 40.198L20.9994 25.0751L5.87653 40.198C5.33767 40.7184 4.61595 41.0064 3.86681 40.9999C3.11768 40.9934 2.40107 40.6929 1.87134 40.1632C1.3416 39.6334 1.04112 38.9168 1.03461 38.1677C1.0281 37.4185 1.31608 36.6968 1.83653 36.158L16.9594 21.0351L1.83653 5.91225C1.3009 5.37646 1 4.64986 1 3.89225C1 3.13464 1.3009 2.40805 1.83653 1.87225Z" fill="#FCF7F8" stroke="#FCF7F8" stroke-width="2"/>
</svg>
